<svg width="51" height="52" viewBox="0 0 51 52" fill="none" xmlns="http://www.w3.org/2000/svg">
<mask id="mask0_898_242" style="mask-type:luminance" maskUnits="userSpaceOnUse" x="0" y="0" width="51" height="52">
<path d="M51 0H0V51.4491H51V0Z" fill="white"/>
</mask>
<g mask="url(#mask0_898_242)">
<path fill-rule="evenodd" clip-rule="evenodd" d="M8.09668 22.0327C9.58178 22.0327 10.2894 21.5977 10.5556 21.3494C10.7952 21.1265 10.851 20.9206 10.6727 20.7574C10.4375 20.5415 10.0834 20.4968 9.66775 20.4841C9.34218 20.9796 8.60507 21.7305 8.09668 22.0327ZM42.9043 22.0327C41.4192 22.0327 40.7117 21.5977 40.4454 21.3494C40.2059 21.1265 40.15 20.9206 40.3284 20.7574C40.5635 20.5415 40.9176 20.4968 41.3333 20.4841C41.6589 20.9796 42.3959 21.7305 42.9043 22.0327ZM49.2649 16.1917C49.2691 16.2036 49.2736 16.2157 49.2781 16.2276L49.2649 16.1917ZM1.73611 16.1917C1.73195 16.2036 1.72745 16.2157 1.72296 16.2276L1.73611 16.1917ZM25.5006 43.1951C23.9664 43.1951 22.4759 43.0065 21.0516 42.6514C20.355 43.2107 19.5922 43.3449 18.7637 43.0529C11.3783 40.316 6.11441 33.2073 6.11441 24.8694C6.11441 24.2932 6.13943 23.723 6.18884 23.1597C7.45486 23.1597 8.3302 23.3024 8.89922 23.7214C9.21516 23.9536 9.67833 24.5781 9.58082 25.1446C9.54939 25.3275 8.73209 24.6409 8.17014 24.8694C8.0056 24.9361 8.24262 25.3788 8.45401 25.576C8.82383 25.9208 9.27899 25.8653 9.28028 26.0343C9.28155 26.2461 8.8867 26.1389 8.52586 26.6405C8.29426 26.9629 8.18906 27.2856 8.26764 27.3998C8.32442 27.482 8.51335 27.4662 8.75584 27.4139C9.05702 27.3491 9.23345 27.1801 9.30016 27.2144C9.34378 27.2369 9.30369 27.447 9.27065 27.6401C9.24274 27.8049 9.2947 27.9868 9.40537 28.0064C9.52019 28.0266 9.6732 27.9075 9.77296 27.7553C9.92371 27.5236 10.0793 27.3816 10.146 27.4137C10.1915 27.4358 10.2938 28.109 10.8513 28.5202C11.013 28.6396 11.165 28.6668 11.2372 28.6504C11.3863 28.6165 11.4438 28.1132 11.3963 27.7857C11.3482 27.4528 11.0156 27.2513 11.0534 27.1352C11.0762 27.065 11.8774 27.1346 11.8036 26.7433C11.7844 26.6412 11.5349 26.6101 11.3392 26.3599C11.0271 25.9606 10.5995 26.1746 10.5896 25.9904C10.5812 25.8384 11.659 25.9449 11.964 25.1471C12.0583 24.9005 11.649 25.057 11.4402 24.8967C10.8994 24.4809 10.5097 25.0487 10.3827 24.9592C10.2554 24.8694 10.427 24.1361 10.087 23.6511C9.60777 22.9673 8.6378 22.6738 8.17751 22.6738C10.3975 22.6738 10.8558 22.4531 11.5878 21.8341C11.9682 21.5121 12.1449 20.8712 12.0436 20.5142C11.9528 20.1963 11.6769 19.857 11.3517 19.795C10.9649 19.7216 10.512 19.701 10.0469 19.6966C10.136 19.3858 10.1643 19.0442 10.1364 18.6095C10.1068 18.147 9.94936 17.688 9.61097 17.3624C9.28572 17.0494 8.72954 16.9836 8.28721 17.2515C7.67072 17.6245 7.04492 18.281 6.49836 18.8883C6.1529 18.4511 6.03969 17.8701 6.01723 17.1895C5.99607 16.5573 6.40951 15.7574 6.69081 15.7256C7.07957 15.6813 7.22392 16.2741 7.64314 16.5474C8.07808 16.8309 8.37445 16.763 8.7183 16.6099C8.84308 16.4907 8.75424 16.338 8.77573 16.134C9.21291 15.9886 9.76557 16.2753 10.104 15.4873C10.0482 15.3372 9.87078 15.3064 9.76301 15.1643C9.98785 14.9881 10.4889 14.9497 10.7756 13.9964C10.6483 13.7347 10.0382 13.8996 10.0472 13.5801C10.0536 13.3604 9.30817 13.4524 9.0766 13.4576C9.49165 13.3626 10.1267 13.2218 9.82876 12.6095C10.2223 12.2721 10.2499 11.6799 10.2441 11.533C10.0908 11.4458 10.0164 11.5157 9.79316 11.458C9.98143 11.0952 10.2961 10.8681 9.78065 10.0297C8.54895 9.9007 8.40429 10.437 8.22178 10.5384C8.13197 10.4723 8.06814 10.1599 8.0165 10.1438C7.34099 10.1268 7.09882 10.9528 7.02761 11.135C6.88648 11.1754 6.64431 10.8492 6.5253 10.9592C6.29854 11.1693 6.53043 11.9535 6.5189 12.3538C6.4942 11.8455 6.13206 11.3897 5.83633 11.5305C5.70963 11.5911 5.12521 10.8562 4.79067 10.9393C4.61072 10.9839 4.46413 11.3098 4.4003 11.5257C4.27554 11.9491 4.41763 12.2688 4.35508 12.3554C4.25692 12.4911 3.90602 12.3455 3.79889 12.4504C3.71935 12.5287 3.66161 13.1095 3.72288 13.6869C3.52978 13.7068 3.30108 13.7668 3.13461 13.8942C2.725 14.2071 2.65668 14.7095 2.59606 14.7306C2.47225 14.7739 2.20827 14.4561 2.08735 14.4773C1.94205 14.5028 1.70309 14.7945 1.64631 15.0363C1.5395 15.4941 1.80251 16.126 1.72329 16.2276C1.60268 16.3825 0.65806 15.7372 0.52623 15.9684C-0.0533744 16.9853 0.639776 17.4519 0.631437 17.5773C0.618287 17.7762 0.179815 17.6912 0.147739 17.8878C0.0319464 18.5973 0.856927 19.2392 1.29508 19.2331C1.4545 19.2308 1.92664 18.8584 2.18068 19.014C2.41868 19.1599 2.68266 21.2327 4.14723 21.3864C5.12586 21.4886 5.92549 20.824 6.58433 20.0997C6.73348 20.1755 6.89803 20.2434 7.08085 20.3086C7.64057 20.5074 8.21473 20.4985 8.66987 20.4834C8.48063 20.7496 8.22851 21.002 7.90616 21.2259C6.56765 22.1545 4.15621 22.0327 3.59104 22.0327H1.39226L0.265135 23.1597C0.227607 23.7247 0.208362 24.2949 0.208362 24.8694C0.208362 37.0696 8.84661 47.2523 20.3406 49.6345C21.4866 49.893 22.1435 50.3868 22.3109 51.1155C23.3566 51.2412 24.4211 51.3059 25.5006 51.3059C26.5799 51.3059 27.6444 51.2412 28.6901 51.1155C28.8575 50.3868 29.5144 49.893 30.6606 49.6345C42.1545 47.2523 50.7926 37.0696 50.7926 24.8694C50.7926 24.2949 50.7734 23.7247 50.7359 23.1597L49.6088 22.0327H47.41C46.8449 22.0327 44.4334 22.1545 43.0949 21.2259C42.7725 21.002 42.5204 20.7496 42.3312 20.4834C42.7864 20.4985 43.3605 20.5074 43.9202 20.3086C44.103 20.2434 44.2676 20.1755 44.4167 20.0997C45.0756 20.824 45.8752 21.4886 46.8539 21.3864C48.3184 21.2327 48.5824 19.1599 48.8204 19.014C49.0743 18.8584 49.5465 19.2308 49.706 19.2331C50.1441 19.2392 50.9691 18.5973 50.8534 17.8878C50.8213 17.6912 50.3827 17.7762 50.3696 17.5773C50.3613 17.4519 51.0544 16.9853 50.4748 15.9684C50.343 15.7372 49.3984 16.3825 49.2778 16.2276C49.1985 16.126 49.4616 15.4941 49.3547 15.0363C49.298 14.7945 49.059 14.5028 48.9136 14.4773C48.7928 14.4561 48.5287 14.7739 48.405 14.7306C48.3444 14.7095 48.2761 14.2071 47.8664 13.8942C47.7 13.7668 47.4713 13.7068 47.2782 13.6869C47.3395 13.1095 47.2817 12.5287 47.2021 12.4504C47.0951 12.3455 46.7441 12.4911 46.646 12.3554C46.5834 12.2688 46.7255 11.9491 46.6008 11.5257C46.5369 11.3098 46.3903 10.9839 46.2104 10.9393C45.8758 10.8562 45.2915 11.5911 45.1648 11.5305C44.8689 11.3897 44.5069 11.8455 44.4821 12.3538C44.4706 11.9535 44.7026 11.1693 44.4757 10.9592C44.3568 10.8492 44.1146 11.1754 43.9734 11.135C43.9022 10.9528 43.66 10.1268 42.9846 10.1438C42.933 10.1599 42.8691 10.4723 42.7793 10.5384C42.5967 10.437 42.4521 9.9007 41.2203 10.0297C40.7049 10.8681 41.0197 11.0952 41.2079 11.458C40.9847 11.5157 40.9103 11.4458 40.7569 11.533C40.7511 11.6799 40.7787 12.2721 41.1722 12.6095C40.8743 13.2218 41.5094 13.3626 41.9244 13.4576C41.6929 13.4524 40.9475 13.3604 40.9538 13.5801C40.9628 13.8996 40.3528 13.7347 40.2254 13.9964C40.5122 14.9497 41.0132 14.9881 41.238 15.1643C41.1303 15.3064 40.9529 15.3372 40.8971 15.4873C41.2354 16.2753 41.7881 15.9886 42.2253 16.134C42.2468 16.338 42.1579 16.4907 42.2828 16.6099C42.6266 16.763 42.923 16.8309 43.358 16.5474C43.7772 16.2741 43.9214 15.6813 44.3102 15.7256C44.5915 15.7574 45.005 16.5573 44.9839 17.1895C44.9613 17.8701 44.8482 18.4511 44.5027 18.8883C43.9561 18.281 43.3303 17.6245 42.7139 17.2515C42.2715 16.9836 41.7153 17.0494 41.39 17.3624C41.0516 17.688 40.8942 18.147 40.8646 18.6095C40.8368 19.0442 40.865 19.3858 40.9541 19.6966C40.4891 19.701 40.0362 19.7216 39.6493 19.795C39.3241 19.857 39.0483 20.1963 38.9574 20.5142C38.8562 20.8712 39.0328 21.5121 39.4133 21.8341C40.1452 22.4531 40.6036 22.6738 42.8236 22.6738C42.3633 22.6738 41.3932 22.9673 40.9141 23.6511C40.5741 24.1361 40.7457 24.8694 40.6183 24.9592C40.4913 25.0487 40.1016 24.4809 39.5608 24.8967C39.352 25.057 38.9428 24.9005 39.0371 25.1471C39.342 25.9449 40.4198 25.8384 40.4114 25.9904C40.4014 26.1746 39.974 25.9606 39.6618 26.3599C39.4662 26.6101 39.2166 26.6412 39.1974 26.7433C39.1237 27.1346 39.9249 27.065 39.9477 27.1352C39.9854 27.2513 39.6528 27.4528 39.6048 27.7857C39.5572 28.1132 39.6146 28.6165 39.7639 28.6504C39.8361 28.6668 39.9881 28.6396 40.1497 28.5202C40.7072 28.109 40.8094 27.4358 40.8551 27.4137C40.9217 27.3816 41.0773 27.5236 41.2281 27.7553C41.3278 27.9075 41.4809 28.0266 41.5957 28.0064C41.7063 27.9868 41.7584 27.8049 41.7304 27.6401C41.6974 27.447 41.6572 27.2369 41.701 27.2144C41.7676 27.1801 41.944 27.3491 42.2452 27.4139C42.4878 27.4662 42.6767 27.482 42.7334 27.3998C42.8119 27.2856 42.7068 26.9629 42.4752 26.6405C42.1143 26.1389 41.7195 26.2461 41.7207 26.0343C41.7221 25.8653 42.1773 25.9208 42.5471 25.576C42.7584 25.3788 42.9955 24.9361 42.8309 24.8694C42.269 24.6409 41.4517 25.3275 41.4202 25.1446C41.3227 24.5781 41.7859 23.9536 42.1019 23.7214C42.6709 23.3024 43.5462 23.1597 44.8122 23.1597C44.8616 23.723 44.8866 24.2932 44.8866 24.8694C44.8866 33.2073 39.6227 40.316 32.2374 43.0529C31.4088 43.3449 30.646 43.2107 29.9494 42.6514C28.5253 43.0065 27.0346 43.1951 25.5006 43.1951ZM45.1086 19.5648C45.2628 19.3822 45.3975 19.1606 45.523 18.8828C45.6564 18.5871 45.734 18.2134 45.7517 17.7592C45.9458 17.9199 46.1359 18.02 46.1471 18.0835C46.1783 18.264 45.7895 18.2141 45.8437 18.3892C45.9412 18.7031 46.185 19.1198 46.6607 19.2035C46.9911 19.2616 47.4516 18.6207 47.6855 19.0608C47.8751 19.4172 47.5262 20.1321 47.0042 20.4039C46.7685 20.5264 46.2925 20.5529 45.7687 20.1986C45.5935 20.0798 45.3684 19.8499 45.1086 19.5648ZM46.2357 15.1245C45.9624 15.7881 46.6915 16.4149 46.6533 16.5849C46.6319 16.6802 46.0443 16.4883 45.6732 16.5224C45.5483 15.807 45.3068 15.3907 45.4527 15.1967C45.5237 15.1031 45.8656 15.1838 46.2357 15.1245ZM41.9543 19.6973C41.8554 19.3357 41.852 18.9768 41.9271 18.6547C42.0813 17.9953 42.6035 18.2805 42.9935 18.5397C43.2374 18.7016 43.5141 19.0326 43.83 19.4133C43.7278 19.4627 43.6165 19.5074 43.4959 19.5471C43.1087 19.6742 42.5541 19.6953 41.9543 19.6973ZM5.89246 19.5648C5.73817 19.3822 5.60346 19.1606 5.47804 18.8828C5.34461 18.5871 5.26698 18.2134 5.24935 17.7592C5.05528 17.9199 4.86507 18.02 4.85386 18.0835C4.82274 18.264 5.2115 18.2141 5.15728 18.3892C5.05978 18.7031 4.816 19.1198 4.34032 19.2035C4.00995 19.2616 3.54935 18.6207 3.31552 19.0608C3.12594 19.4172 3.47493 20.1321 3.9968 20.4039C4.23255 20.5264 4.70855 20.5529 5.23234 20.1986C5.40747 20.0798 5.63265 19.8499 5.89246 19.5648ZM4.76533 15.1245C5.0386 15.7881 4.30953 16.4149 4.34771 16.5849C4.3692 16.6802 4.95681 16.4883 5.32793 16.5224C5.4527 15.807 5.69423 15.3907 5.54828 15.1967C5.4774 15.1031 5.13547 15.1838 4.76533 15.1245ZM9.04676 19.6973C9.14555 19.3357 9.14908 18.9768 9.07402 18.6547C8.91974 17.9953 8.39755 18.2805 8.00752 18.5397C7.76374 18.7016 7.48693 19.0326 7.17099 19.4133C7.2733 19.4627 7.38461 19.5074 7.50521 19.5471C7.89237 19.6742 8.44695 19.6953 9.04676 19.6973Z" fill="#009FD9"/>
<path fill-rule="evenodd" clip-rule="evenodd" d="M49.7061 23.1602H45.8416C45.8885 23.7236 45.9121 24.294 45.9121 24.8697C45.9121 33.415 40.5928 41.066 32.5915 44.0163C31.5949 44.3839 30.6077 44.277 29.7399 43.7554C28.3486 44.0666 26.9263 44.2218 25.4997 44.2218C24.0729 44.2218 22.6506 44.0666 21.2593 43.7554C20.3916 44.277 19.4044 44.3839 18.4077 44.0163C10.4065 41.066 5.08712 33.415 5.08712 24.8697C5.08712 24.294 5.11085 23.7236 5.15768 23.1602H1.29323C1.25377 23.7246 1.23389 24.2949 1.23389 24.8697C1.23389 36.3646 9.32012 46.2843 20.5494 48.6302C21.5533 48.84 22.5205 49.3 23.025 50.161C23.8474 50.2405 24.6733 50.2799 25.4997 50.2799C26.3259 50.2799 27.1519 50.2405 27.9742 50.161C28.4788 49.3 29.4459 48.84 30.4499 48.6302C41.6792 46.2843 49.7654 36.3646 49.7654 24.8697C49.7654 24.2949 49.7455 23.7246 49.7061 23.1602Z" fill="#E6F8FF"/>
<path fill-rule="evenodd" clip-rule="evenodd" d="M10.556 29.5315C10.4232 29.4683 10.3276 29.3525 10.259 29.2647C9.99818 28.9302 10.0453 28.7046 9.94333 28.7007C9.81888 28.6963 9.69187 29.1629 9.50293 29.3808C9.50711 29.5322 9.49074 29.6845 9.53405 29.8296C9.5703 29.9521 9.67101 30.1146 9.73196 30.1262C9.81086 30.1413 10.0675 30.0681 10.1916 29.9748C10.3481 29.8571 10.4241 29.6762 10.556 29.5315Z" fill="#009FD9"/>
<path fill-rule="evenodd" clip-rule="evenodd" d="M10.8508 28.5204C10.2933 28.1091 10.191 27.4358 10.1455 27.4137C10.0787 27.3817 9.92317 27.5238 9.77241 27.7553C9.67266 27.9077 9.51966 28.0266 9.40482 28.0064C9.29417 27.9869 9.24221 27.8051 9.27011 27.6402C9.30314 27.4471 9.34324 27.237 9.29962 27.2145C9.2329 27.1802 9.05649 27.3492 8.75529 27.4141C8.63726 27.6341 8.46277 27.89 8.42364 28.1367C8.38547 28.3782 8.41305 28.5751 8.56349 28.7682C8.61417 28.8334 8.83966 28.7173 8.91246 28.7881C8.96923 28.8436 8.85345 29.0066 8.8743 29.3011C8.88104 29.3928 9.01287 29.6041 9.11711 29.6286C9.18094 29.6433 9.324 29.5859 9.50201 29.3806C9.69093 29.1628 9.81796 28.6962 9.94241 28.7006C10.0444 28.7045 9.99726 28.9299 10.258 29.2644C10.3267 29.3524 10.4223 29.4682 10.5551 29.5314C10.5974 29.5516 10.668 29.5824 10.7135 29.5496C10.7991 29.4884 10.8533 29.3097 10.862 29.1878C10.8848 28.8661 10.8614 28.7208 10.8508 28.5204Z" fill="#009FD9"/>
<path fill-rule="evenodd" clip-rule="evenodd" d="M40.4448 29.5315C40.5776 29.4683 40.6732 29.3525 40.7419 29.2647C41.0026 28.9302 40.9554 28.7046 41.0575 28.7007C41.182 28.6963 41.3089 29.1629 41.4979 29.3808C41.4937 29.5322 41.51 29.6845 41.4668 29.8296C41.4305 29.9521 41.3298 30.1146 41.2688 30.1262C41.19 30.1413 40.9333 30.0681 40.8093 29.9748C40.6527 29.8571 40.5766 29.6762 40.4448 29.5315Z" fill="#009FD9"/>
<path fill-rule="evenodd" clip-rule="evenodd" d="M40.1498 28.5204C40.7073 28.1091 40.8095 27.4358 40.8551 27.4137C40.9218 27.3817 41.0774 27.5238 41.2281 27.7553C41.3278 27.9077 41.4808 28.0266 41.5957 28.0064C41.7064 27.9869 41.7584 27.8051 41.7304 27.6402C41.6974 27.4471 41.6573 27.237 41.7008 27.2145C41.7676 27.1802 41.944 27.3492 42.2452 27.4141C42.3633 27.6341 42.5377 27.89 42.5769 28.1367C42.615 28.3782 42.5875 28.5751 42.437 28.7682C42.3864 28.8334 42.1608 28.7173 42.0881 28.7881C42.0313 28.8436 42.147 29.0066 42.1263 29.3011C42.1195 29.3928 41.9877 29.6041 41.8834 29.6286C41.8197 29.6433 41.6765 29.5859 41.4985 29.3806C41.3096 29.1628 41.1826 28.6962 41.0581 28.7006C40.9561 28.7045 41.0032 28.9299 40.7425 29.2644C40.6738 29.3524 40.5782 29.4682 40.4455 29.5314C40.4031 29.5516 40.3326 29.5824 40.287 29.5496C40.2014 29.4884 40.1471 29.3097 40.1386 29.1878C40.1157 28.8661 40.1391 28.7208 40.1498 28.5204Z" fill="#009FD9"/>
<path fill-rule="evenodd" clip-rule="evenodd" d="M25.5006 42.4621C25.2439 42.4621 25.0656 42.4579 24.8471 42.3902C23.9907 39.7683 22.5464 39.3946 19.8161 39.4155C15.6049 39.4476 11.6208 36.7468 11.8014 31.2819C13.2672 30.4103 13.4722 28.4001 13.7035 26.3313C13.8317 25.1846 13.8119 23.245 13.553 21.7502C13.1184 19.2388 12.473 17.9949 10.3628 17.9448C11.8665 10.7166 10.3628 17.9448 11.8665 10.7166C13.6271 10.7166 15.6662 10.2945 17.8216 8.31288C19.5191 6.75241 22.4212 5.59192 25.5006 7.9469C28.5798 5.59192 31.4819 6.75241 33.1793 8.31288C35.3348 10.2945 37.3738 10.7166 39.1346 10.7166C40.6382 17.9448 39.1346 10.7166 40.6382 17.9448C38.528 17.9949 37.8826 19.2388 37.448 21.7502C37.1892 23.245 37.1693 25.1846 37.2975 26.3313C37.5289 28.4001 37.7338 30.4103 39.1996 31.2819C39.3802 36.7468 35.3961 39.4476 31.1849 39.4155C28.4546 39.3946 27.0103 39.7683 26.1539 42.3902C25.9354 42.4579 25.7571 42.4621 25.5006 42.4621Z" fill="#009FD9"/>
<path fill-rule="evenodd" clip-rule="evenodd" d="M24.4746 21.1526V19.9067L19.8769 15.3203H18.2122L15.7202 17.8121L17.8042 19.8958H19.4692L20.9245 18.4406L19.2597 16.7755L18.2122 17.8121L18.8405 18.4406L19.2597 18.0214L19.6674 18.4406L18.8405 19.2671L17.3853 17.8121L19.2597 15.9486L24.4746 21.1526Z" fill="#E6F8FF"/>
<path fill-rule="evenodd" clip-rule="evenodd" d="M26.5269 21.1526V19.9067L31.1133 15.3203H32.7781L35.2812 17.8121L33.1973 19.8958H31.5322L30.077 18.4406L31.7417 16.7755L32.7781 17.8121L32.1609 18.4406L31.7417 18.0214L31.3228 18.4406L32.1609 19.2671L33.6162 17.8121L31.7417 15.9486L26.5269 21.1526Z" fill="#E6F8FF"/>
<path fill-rule="evenodd" clip-rule="evenodd" d="M31.7475 1.67361V0.0922852L33.3422 1.67361L34.9236 0.0922852V1.67361H36.5184L34.9236 3.26807L36.5184 4.8494H34.9236V6.44419L33.3422 4.8494L31.7475 6.44419V4.8494H30.1665L31.7475 3.26807L30.1665 1.67361H31.7475Z" fill="#009FD9"/>
<path fill-rule="evenodd" clip-rule="evenodd" d="M31.7475 1.67361V0.0922852L33.3422 1.67361L34.9236 0.0922852V1.67361H36.5184L34.9236 3.26807L36.5184 4.8494H34.9236V6.44419L33.3422 4.8494L31.7475 6.44419V4.8494H30.1665L31.7475 3.26807L30.1665 1.67361H31.7475ZM32.2607 1.32174V1.67361V2.18681H31.7475H31.3959L32.1106 2.90722L32.4708 3.27064L32.1106 3.63086L31.4053 4.33619H31.7475H32.2607V4.8494V5.20543L32.9795 4.48663L33.3429 4.12321L33.705 4.48855L34.4104 5.19998V4.8494V4.33619H34.9236H35.2739L34.5628 3.63086L34.1974 3.26872L34.5608 2.9053L35.2793 2.18681H34.9236H34.4104V1.67361V1.33136L33.705 2.03638L33.3449 2.39659L32.9814 2.03638L32.2607 1.32174Z" fill="#E6F8FF"/>
<path fill-rule="evenodd" clip-rule="evenodd" d="M23.9052 1.67389V0.0791016L25.5004 1.67389L27.0813 0.0791016V1.67389H28.6764L27.0813 3.2549L28.6764 4.84969H27.0813V6.43101L25.5004 4.84969L23.9052 6.43101V4.84969H22.3242L23.9052 3.2549L22.3242 1.67389H23.9052Z" fill="#009FD9"/>
<path fill-rule="evenodd" clip-rule="evenodd" d="M23.9052 1.67389V0.0791016L25.5004 1.67389L27.0813 0.0791016V1.67389H28.6764L27.0813 3.2549L28.6764 4.84969H27.0813V6.43101L25.5004 4.84969L23.9052 6.43101V4.84969H22.3242L23.9052 3.2549L22.3242 1.67389H23.9052ZM24.4184 1.31786V1.67389V2.18711H23.9052H23.5633L24.2682 2.89213L24.6285 3.25233L24.2682 3.61575L23.5536 4.33648H23.9052H24.4184V4.84969V5.20155L25.1394 4.48691L25.5029 4.12671L25.8631 4.48691L26.5681 5.19193V4.84969V4.33648H27.0813H27.4373L26.7185 3.61767L26.3551 3.25425L26.7205 2.89213L27.4315 2.18711H27.0813H26.5681V1.67389V1.32363L25.8631 2.03474L25.5009 2.40008L25.1376 2.03668L24.4184 1.31786Z" fill="#E6F8FF"/>
<path fill-rule="evenodd" clip-rule="evenodd" d="M16.0777 1.67361V0.0922852L17.6591 1.67361L19.2536 0.0922852V1.67361H20.8348L19.2536 3.26807L20.8348 4.8494H19.2536V6.44419L17.6591 4.8494L16.0777 6.44419V4.8494H14.4829L16.0777 3.26807L14.4829 1.67361H16.0777Z" fill="#009FD9"/>
<path fill-rule="evenodd" clip-rule="evenodd" d="M16.0777 1.67361V0.0922852L17.6591 1.67361L19.2536 0.0922852V1.67361H20.8348L19.2536 3.26807L20.8348 4.8494H19.2536V6.44419L17.6591 4.8494L16.0777 6.44419V4.8494H14.4829L16.0777 3.26807L14.4829 1.67361H16.0777ZM16.5909 1.33104V1.67361V2.18681H16.0777H15.722L16.4405 2.9053L16.8039 3.26872L16.4385 3.63086L15.7271 4.33619H16.0777H16.5909V4.8494V5.19998L17.296 4.48855L17.6584 4.12321L18.0218 4.48663L18.7403 5.20543V4.8494V4.33619H19.2536H19.5957L18.8908 3.63086L18.5305 3.27064L18.8908 2.90722L19.6054 2.18681H19.2536H18.7403V1.67361V1.32174L18.0199 2.03638L17.6564 2.39659L17.296 2.03638L16.5909 1.33104Z" fill="#E6F8FF"/>
<path fill-rule="evenodd" clip-rule="evenodd" d="M25.4994 15.0688L24.2119 16.3562L25.5016 17.6459L26.7924 16.3613L25.4994 15.0688ZM25.4994 14.7056L23.8491 16.3562L25.5007 18.0077L27.1551 16.3613L25.4994 14.7056Z" fill="#E6F8FF"/>
<path fill-rule="evenodd" clip-rule="evenodd" d="M14.4356 29.4206H22.6947V22.8464L20.641 24.9002L20.4594 25.0821L20.2782 24.8992L18.437 23.0411L18.362 22.9652V22.8605V20.7937H17.539H17.4327L17.3574 20.7181L14.632 17.9931L14.4506 17.8118L14.632 17.6304L17.7654 14.4968L17.8405 14.4219H17.947H19.398V12.9694V12.8639L19.4744 12.7879L22.6197 9.65667L22.8012 9.47608L22.9815 9.65667L25.5058 12.181L28.0311 9.6557L28.2127 9.47416L28.3939 9.6557L31.5273 12.7888L31.6024 12.8639V12.9704V14.4219H33.042H33.1468L33.2225 14.4968L36.3688 17.6294L36.5511 17.8109L36.3697 17.9922L33.6434 20.7181L33.568 20.7937H33.4618H32.6387V22.8605V22.9652L32.5638 23.0411L30.7225 24.8992L30.5413 25.0821L30.3597 24.9002L28.3061 22.8464V29.4206H36.5652C36.314 28.5206 36.2081 27.5645 36.111 26.6872L36.0865 26.4662C36.0031 25.722 35.9785 24.8727 36.0064 24.0224C36.0346 23.1578 36.1171 22.2947 36.2469 21.5429C36.4381 20.4388 36.6953 19.4262 37.165 18.6137C37.6131 17.8391 38.2472 17.2528 39.1867 16.9506C39.0355 16.2258 38.8829 15.4925 38.6934 14.5763C38.5583 13.9227 38.3778 13.057 38.1991 12.1987L38.1342 11.8891C37.059 11.7887 36.0663 11.5231 35.1333 11.0959C34.1466 10.6443 33.23 10.014 32.3546 9.20921C31.4183 8.34831 30.3906 7.88578 29.3465 7.83574C28.3115 7.78602 27.2516 8.14111 26.2404 8.91445L25.6556 9.36157L25.5004 9.48025L25.3451 9.36157L24.7604 8.91445C23.7491 8.14111 22.6893 7.78602 21.6542 7.83574C20.6101 7.88578 19.5824 8.34831 18.6462 9.20921C17.7708 10.014 16.8541 10.6443 15.8674 11.0959C14.9344 11.5231 13.9417 11.7887 12.8665 11.8891L12.8017 12.1987C12.623 13.057 12.4424 13.9227 12.3074 14.5763C12.1178 15.4925 11.9652 16.2258 11.8141 16.9506C12.7536 17.2528 13.3877 17.8391 13.8357 18.6137C14.3054 19.4262 14.5627 20.4388 14.7538 21.5429C14.8837 22.2947 14.9661 23.1578 14.9943 24.0224C15.0222 24.8727 14.9976 25.722 14.9142 26.4662L14.8895 26.6875C14.7927 27.5647 14.6867 28.5208 14.4356 29.4206ZM11.5151 17.13C13.5048 17.6441 14.1277 19.4297 14.501 21.5859C14.7564 23.0598 14.825 24.958 14.6595 26.4383C14.5444 27.4697 14.4327 28.6334 14.0905 29.6772H22.9514V22.6197L22.755 22.4233L20.4597 24.719L18.6186 22.8605V20.537H17.539L14.8134 17.8118L17.947 14.6784H19.6546V12.9694L22.8003 9.83822L25.5058 12.5438L28.2127 9.83693L31.3461 12.9704V14.6784H33.042L36.1883 17.8106L33.4618 20.537H32.3822V22.8605L30.5411 24.719L28.2458 22.4233L28.0494 22.6197V29.6772H36.9102C36.5681 28.6334 36.4565 27.4697 36.3412 26.4383C36.1757 24.958 36.2444 23.0598 36.4998 21.5859C36.873 19.4297 37.496 17.6441 39.4856 17.13C39.3047 16.262 39.1235 15.3937 38.9439 14.5255C38.7457 13.5667 38.5458 12.6083 38.346 11.6498C36.1064 11.4834 34.2406 10.5955 32.5281 9.02093C30.5731 7.22342 28.2162 7.08132 26.0848 8.71108L25.5004 9.15789L24.916 8.71108C22.7846 7.08132 20.4276 7.22342 18.4727 9.02093C16.7602 10.5955 14.8943 11.4834 12.6548 11.6498C12.455 12.6083 12.2551 13.5667 12.0569 14.5255C11.8773 15.3937 11.696 16.262 11.5151 17.13Z" fill="#E6F8FF"/>
<path fill-rule="evenodd" clip-rule="evenodd" d="M26.5269 31.2006V21.9901L29.6581 18.8589L31.7417 20.9316V22.5964L30.5402 23.8095L28.6656 21.935L29.7023 20.8986L30.3306 21.5161L29.9114 21.935L30.3306 22.3538L31.1245 21.56L29.6581 20.1047L27.409 22.3538V30.3186H37.1605C37.3046 30.6333 37.4775 30.9299 37.6869 31.2006H26.5269Z" fill="#E6F8FF"/>
<path fill-rule="evenodd" clip-rule="evenodd" d="M24.4745 31.2006V21.9901L21.3433 18.8589L19.2596 20.9316V22.5964L20.4612 23.8095L22.3357 21.935L21.299 20.8986L20.6707 21.5161L21.0899 21.935L20.6707 22.3538L19.8768 21.56L21.3433 20.1047L23.5924 22.3538V30.3186H13.8408C13.6968 30.6333 13.5239 30.9299 13.3145 31.2006H24.4745Z" fill="#E6F8FF"/>
<path fill-rule="evenodd" clip-rule="evenodd" d="M38.2427 31.7797H25.9419V19.6641L30.7052 14.9009V13.2362L28.2133 10.7446L26.1293 12.8286V14.4824L27.5848 15.9377L29.2496 14.2726L28.2133 13.2366L27.5958 13.8646L28.015 14.2838L27.5958 14.7027L26.758 13.8758L28.2133 12.4206L30.0877 14.295L25.501 18.8595L20.9254 14.2838L22.7999 12.4093L24.2552 13.8646L23.417 14.6915L22.9981 14.2726L23.417 13.8534L22.7999 13.225L21.7635 14.2614L23.4282 15.926L24.8835 14.4708V12.8286L22.7999 10.7446L20.2968 13.2362V14.9009L25.0599 19.6641V31.7797H12.7593C12.7949 33.9426 13.5929 35.9233 15.4408 37.1964C16.7129 38.0729 18.2756 38.4652 19.8091 38.4534C22.6077 38.4322 24.4322 38.8848 25.501 41.3918C26.5697 38.8848 28.3942 38.4322 31.1928 38.4534C32.7263 38.4652 34.289 38.0729 35.5611 37.1964C37.409 35.9233 38.207 33.9426 38.2427 31.7797Z" fill="#E6F8FF"/>
<path fill-rule="evenodd" clip-rule="evenodd" d="M21.4864 46.6202L21.5439 46.2559L21.8537 46.6782L22.2756 46.3716L22.2178 46.736L22.5851 46.794L22.1597 47.1032L22.4692 47.5256L22.102 47.4673L22.0436 47.8346L21.7376 47.4096L21.3123 47.7188L21.3704 47.3515L21.0063 47.2938L21.428 46.9875L21.1221 46.5625L21.4864 46.6202Z" fill="#009FD9"/>
<path fill-rule="evenodd" clip-rule="evenodd" d="M0.97645 16.9081C0.943091 16.8 1.04188 16.8376 1.09673 16.8705C1.37451 17.037 1.5368 17.2719 1.80399 17.455C2.01409 17.599 2.3326 17.7443 2.54334 17.8871C2.68543 17.9833 2.72039 18.0894 2.53532 18.0808C2.17736 18.0641 1.85597 17.8848 1.58781 17.6923C1.32832 17.506 1.07139 17.215 0.97645 16.9081Z" fill="#E6F8FF"/>
<path fill-rule="evenodd" clip-rule="evenodd" d="M2.81299 17.9984C2.70234 17.9746 2.7774 17.8936 2.83898 17.8752C3.12765 17.7895 3.45932 17.6927 3.7496 17.549C3.97797 17.4365 4.53994 17.2372 4.74458 17.2218C4.8299 17.2154 4.8748 17.2585 4.80616 17.3351C4.57778 17.5887 4.2102 17.7588 3.91125 17.8987C3.62193 18.0339 3.12701 18.0655 2.81299 17.9984Z" fill="#E6F8FF"/>
<path fill-rule="evenodd" clip-rule="evenodd" d="M3.38534 14.7363C3.46648 14.5705 3.58132 14.5752 3.55309 14.7327C3.48029 15.1366 3.26666 15.7348 3.06298 16.6496C2.97317 17.0531 2.81119 18.3746 2.7557 18.6228C2.71945 18.7849 2.64792 18.8509 2.5687 18.579C2.46894 18.235 2.61297 17.0511 2.6877 16.7297C2.80958 16.2082 2.87374 15.7826 3.38534 14.7363Z" fill="#E6F8FF"/>
<path fill-rule="evenodd" clip-rule="evenodd" d="M5.23435 12.6875C5.24237 12.5627 5.32961 12.6406 5.37323 12.6961C5.59393 12.9781 5.66833 13.2844 5.87169 13.5792C6.03144 13.8107 6.30247 14.0866 6.4638 14.3172C6.57222 14.4728 6.56613 14.5963 6.37848 14.5141C6.01603 14.3551 5.75526 14.0433 5.55479 13.7386C5.36073 13.4438 5.21093 13.0416 5.23435 12.6875Z" fill="#E6F8FF"/>
<path fill-rule="evenodd" clip-rule="evenodd" d="M6.69658 14.5385C6.59169 14.4705 6.70171 14.4162 6.77195 14.4218C7.10394 14.4474 7.48436 14.4789 7.84103 14.4458C8.12105 14.4194 8.77988 14.4364 8.99703 14.5016C9.08748 14.5285 9.11668 14.5908 9.01531 14.6428C8.67948 14.8143 8.233 14.8442 7.86926 14.8702C7.51707 14.8955 6.99392 14.7323 6.69658 14.5385Z" fill="#E6F8FF"/>
<path fill-rule="evenodd" clip-rule="evenodd" d="M8.57788 11.3986C8.72735 11.2594 8.84379 11.3098 8.75237 11.4615C8.51725 11.8493 8.0605 12.3817 7.48827 13.2452C7.23584 13.6259 6.5459 14.9254 6.39033 15.1598C6.28897 15.3125 6.18889 15.3526 6.2152 15.0404C6.24792 14.646 6.86505 13.4813 7.06938 13.1798C7.40166 12.6897 7.63615 12.2759 8.57788 11.3986Z" fill="#E6F8FF"/>
<path fill-rule="evenodd" clip-rule="evenodd" d="M50.0232 16.9081C50.0566 16.8 49.9578 16.8376 49.9029 16.8705C49.6252 17.037 49.4628 17.2719 49.1956 17.455C48.9855 17.599 48.667 17.7443 48.4564 17.8871C48.3142 17.9833 48.2792 18.0894 48.4643 18.0808C48.8223 18.0641 49.1438 17.8848 49.4118 17.6923C49.6714 17.506 49.9282 17.215 50.0232 16.9081Z" fill="#E6F8FF"/>
<path fill-rule="evenodd" clip-rule="evenodd" d="M48.1878 17.9984C48.2985 17.9746 48.2234 17.8936 48.1618 17.8752C47.8732 17.7895 47.5415 17.6927 47.2512 17.549C47.0229 17.4365 46.4608 17.2372 46.2563 17.2218C46.171 17.2154 46.126 17.2585 46.1946 17.3351C46.4231 17.5887 46.7907 17.7588 47.0896 17.8987C47.3789 18.0339 47.8739 18.0655 48.1878 17.9984Z" fill="#E6F8FF"/>
<path fill-rule="evenodd" clip-rule="evenodd" d="M47.6155 14.7363C47.5343 14.5705 47.4195 14.5752 47.4477 14.7327C47.5206 15.1366 47.7341 15.7348 47.9379 16.6496C48.0276 17.0531 48.1897 18.3746 48.2452 18.6228C48.2814 18.7849 48.3529 18.8509 48.4322 18.579C48.5319 18.235 48.3879 17.0511 48.3131 16.7297C48.1912 16.2082 48.1271 15.7826 47.6155 14.7363Z" fill="#E6F8FF"/>
<path fill-rule="evenodd" clip-rule="evenodd" d="M45.7672 12.6875C45.7592 12.5627 45.6721 12.6406 45.6284 12.6961C45.4078 12.9781 45.3334 13.2844 45.1299 13.5792C44.9702 13.8107 44.6991 14.0866 44.5378 14.3172C44.4294 14.4728 44.4355 14.5963 44.6232 14.5141C44.9855 14.3551 45.2464 14.0433 45.4469 13.7386C45.641 13.4438 45.7907 13.0416 45.7672 12.6875Z" fill="#E6F8FF"/>
<path fill-rule="evenodd" clip-rule="evenodd" d="M44.3044 14.5385C44.4094 14.4705 44.2993 14.4162 44.2291 14.4218C43.8971 14.4474 43.5167 14.4789 43.16 14.4458C42.88 14.4194 42.2212 14.4364 42.004 14.5016C41.9136 14.5285 41.8844 14.5908 41.9858 14.6428C42.3216 14.8143 42.768 14.8442 43.1318 14.8702C43.484 14.8955 44.0071 14.7323 44.3044 14.5385Z" fill="#E6F8FF"/>
<path fill-rule="evenodd" clip-rule="evenodd" d="M42.4237 11.3986C42.2742 11.2594 42.1577 11.3098 42.2491 11.4615C42.4842 11.8493 42.9409 12.3817 43.5132 13.2452C43.7656 13.6259 44.4556 14.9254 44.6112 15.1598C44.7125 15.3125 44.8126 15.3526 44.7863 15.0404C44.7535 14.646 44.1364 13.4813 43.9321 13.1798C43.5998 12.6897 43.3654 12.2759 42.4237 11.3986Z" fill="#E6F8FF"/>
<path d="M3.47337 24.8296C3.71393 24.8236 3.94487 24.8236 4.11551 24.8428L4.12514 24.8396C4.12514 24.8396 4.11198 24.7056 4.10941 24.6035C4.10685 24.5045 4.11327 24.3701 4.11327 24.3701L4.10333 24.3643C3.92114 24.3922 3.70334 24.4037 3.46277 24.4098L3.389 24.4117C3.07145 24.4197 2.82126 24.5488 2.82992 24.881C2.83378 25.0382 2.88445 25.2923 3.02655 25.4949L2.70451 25.5033C2.46394 25.5094 2.23589 25.5033 2.06204 25.4844L2.05273 25.4876C2.05273 25.4876 2.06589 25.6274 2.06846 25.7295C2.07102 25.8285 2.06492 25.969 2.06492 25.969L2.07454 25.9745C2.25673 25.9466 2.47453 25.9292 2.7151 25.9231L3.50062 25.9033C3.74119 25.8972 3.97213 25.9033 4.14277 25.9221L4.1524 25.9189C4.1524 25.9189 4.13924 25.7791 4.13668 25.6772C4.13411 25.578 4.14021 25.4375 4.14021 25.4375L4.13027 25.4321C3.94808 25.46 3.73061 25.4773 3.49004 25.4834L3.19815 25.4907C3.08524 25.3234 3.07114 25.1601 3.06921 25.0825C3.06375 24.8724 3.14972 24.8381 3.41241 24.8313L3.47337 24.8296ZM4.56136 26.9922C4.55399 26.896 4.60435 26.8395 4.65887 26.8353C4.67459 26.8341 4.69415 26.8357 4.70056 26.8351C4.74868 26.8315 4.79198 26.7696 4.78685 26.7026C4.78107 26.6243 4.73392 26.5987 4.6733 26.6031C4.50683 26.6157 4.41542 26.81 4.43017 27.0021C4.4446 27.194 4.56425 27.3724 4.73071 27.3595C4.79135 27.3549 4.834 27.3226 4.82823 27.244C4.8231 27.1769 4.77049 27.1225 4.72271 27.1263C4.71629 27.1266 4.69736 27.1312 4.68133 27.1321C4.62679 27.1363 4.56841 27.0882 4.56136 26.9922ZM3.04099 27.3493C3.03328 27.2668 3.02462 27.1754 3.01949 27.1064C3.01308 27.022 3.00474 26.8937 3.00218 26.8023L3.72067 27.0214L3.72194 27.0384C3.46758 27.1619 3.23888 27.2632 3.04099 27.3493ZM2.81645 26.7481C2.82736 26.8584 2.84307 27.0301 2.85109 27.1337C2.85815 27.2273 2.86425 27.3284 2.86938 27.4237C2.47677 27.5901 2.24166 27.6719 2.17302 27.6946C2.18649 27.7434 2.19675 27.8801 2.20061 27.9295C2.20445 27.9792 2.21696 28.1451 2.21119 28.195C2.52297 28.025 3.56734 27.5417 4.24863 27.2382L4.22874 26.9765C3.49742 26.751 2.79464 26.5178 2.06525 26.2776C2.07775 26.3116 2.08481 26.4078 2.08738 26.4399C2.08962 26.4716 2.09475 26.5358 2.0877 26.5715C2.28112 26.6031 2.53965 26.6692 2.81645 26.7481ZM4.14021 28.6331C4.24445 28.6146 4.28744 28.6365 4.32882 28.869C4.35768 29.0299 4.29096 29.1425 4.01512 29.1919C3.78449 29.233 3.67031 29.1942 3.62764 28.9558L3.58755 28.7316L4.14021 28.6331ZM3.42012 28.7615L3.4679 29.0287C3.52788 29.3648 3.26616 29.4649 3.0413 29.505C2.82352 29.5442 2.67469 29.55 2.60603 29.1651C2.57012 28.9638 2.6054 28.9071 2.70964 28.8885L3.42012 28.7615ZM4.40515 28.3843C4.38783 28.2864 4.37147 28.1412 4.37147 28.1412L4.36121 28.1371C4.18512 28.1921 3.97245 28.2422 3.73574 28.2842L2.96208 28.4225C2.72536 28.4648 2.4989 28.4933 2.32442 28.5008L2.31543 28.5055C2.31543 28.5055 2.35072 28.6473 2.36868 28.7481C2.40556 28.9546 2.40782 29.0226 2.45336 29.2782C2.55568 29.8498 2.91236 30.0054 3.18403 29.957C3.48715 29.9028 3.62219 29.6565 3.65651 29.3924C3.76171 29.5245 3.95577 29.6441 4.1293 29.6132C4.341 29.5756 4.59312 29.3822 4.49785 28.8478C4.47989 28.7474 4.43755 28.5652 4.40515 28.3843ZM3.78994 31.11C3.76557 31.0305 3.73895 30.943 3.72033 30.8766C3.69725 30.7951 3.66357 30.6713 3.64272 30.5818L4.3904 30.6529L4.3952 30.6697C4.17036 30.8419 3.96636 30.9862 3.78994 31.11ZM3.44962 30.5658C3.48266 30.6716 3.53206 30.8365 3.56061 30.9372C3.58626 31.027 3.61225 31.1248 3.6363 31.2175C3.28476 31.4587 3.07082 31.5858 3.00826 31.622C3.03104 31.6668 3.06856 31.7991 3.08203 31.8465C3.0955 31.8944 3.14106 32.0544 3.14522 32.1047C3.41723 31.8757 4.34389 31.1941 4.95107 30.7608L4.87923 30.508C4.11775 30.4329 3.38226 30.3448 2.61984 30.2546C2.63876 30.2857 2.66506 30.3784 2.67404 30.4092C2.68269 30.4404 2.70034 30.5019 2.70066 30.5381C2.896 30.5301 3.16287 30.544 3.44962 30.5658ZM4.71789 34.4014L5.44889 34.113C5.67277 34.0248 5.87871 33.9529 6.05737 33.9076L6.0641 33.8987C6.0641 33.8987 6.00507 33.7746 5.96851 33.6822C5.93099 33.5872 5.89089 33.459 5.89089 33.459L5.88063 33.4595C5.73115 33.5436 5.51849 33.6338 5.29461 33.722L4.59054 33.9998C4.53987 34.0199 4.24029 34.1347 4.16105 34.1441C4.13122 34.1464 4.10557 34.1345 4.08633 34.0856L3.95898 33.7627C3.93974 33.7136 3.95032 33.6876 3.97374 33.6688C4.03789 33.6216 4.33523 33.5013 4.38591 33.4814L5.09029 33.2037C5.31418 33.1154 5.531 33.0362 5.69779 32.9955L5.70549 32.989C5.70549 32.989 5.64743 32.8677 5.60991 32.7729C5.57366 32.6805 5.53228 32.5494 5.53228 32.5494L5.52105 32.5474C5.35972 32.6362 5.15989 32.7245 4.936 32.8127L4.23195 33.0904C4.18126 33.1103 3.88168 33.2254 3.80246 33.2344C3.77263 33.237 3.74729 33.2251 3.72772 33.176L3.60262 32.8585C3.58337 32.8098 3.59365 32.7835 3.61738 32.7648C3.68153 32.7177 3.97887 32.5971 4.02955 32.5772L4.73392 32.2994C4.95749 32.2112 5.17464 32.132 5.34112 32.0913L5.34914 32.0852C5.34914 32.0852 5.29108 31.9639 5.25354 31.8686C5.21698 31.7767 5.17561 31.6454 5.17561 31.6454L5.1647 31.6435C5.00303 31.7324 4.80353 31.8205 4.57964 31.9087L3.84864 32.1968C3.62475 32.2849 3.41081 32.3632 3.24114 32.405L3.23312 32.4113C3.23312 32.4113 3.29245 32.5355 3.32999 32.6304L4.04398 34.4411C4.08023 34.5335 4.12064 34.6618 4.12064 34.6618L4.13155 34.6638C4.2932 34.5748 4.49401 34.4899 4.71789 34.4014ZM6.49391 35.2838C6.57442 35.2376 6.62766 35.2337 6.73255 35.4159C6.81851 35.5651 6.84097 35.7139 6.50994 35.9041C6.22928 36.0655 6.04004 36.0067 5.95535 35.8595C5.9188 35.7963 5.86748 35.6876 5.86811 35.6436L6.49391 35.2838ZM5.96755 35.1085L5.28627 35.5002C5.07777 35.6203 4.87441 35.7234 4.71276 35.7895L4.7057 35.7969C4.7057 35.7969 4.78396 35.9137 4.83497 36.0023C4.88436 36.0881 4.94273 36.2094 4.94273 36.2094H4.95396C5.10087 36.0981 5.28434 35.9794 5.49284 35.8595L5.72634 35.7251C5.73885 35.7918 5.77863 35.8803 5.82962 35.9689C6.09425 36.4292 6.49326 36.4217 6.7797 36.2572C6.88073 36.1992 7.01803 36.0731 7.04497 35.8691C7.06165 35.7404 7.00872 35.5875 6.90543 35.4076C6.86759 35.3417 6.67192 35.0467 6.6283 34.9709C6.57891 34.8848 6.51732 34.7586 6.51732 34.7586L6.50609 34.7584C6.35919 34.8697 6.17605 34.9886 5.96755 35.1085ZM6.3826 37.3356L6.6822 37.1434C6.75789 37.2615 6.93879 37.5614 7.02861 37.743L7.04144 37.7452C7.0626 37.7247 7.11489 37.6878 7.13926 37.672C7.16365 37.6566 7.21624 37.6262 7.24384 37.6153L7.24736 37.6028C7.14087 37.4665 7.03277 37.3279 6.84705 37.0379L7.044 36.9116C7.08988 36.882 7.33718 36.7271 7.41319 36.7028C7.62425 37.0318 7.83113 37.4261 7.83113 37.4261L7.84525 37.4242C7.86514 37.4077 7.92833 37.3639 7.9527 37.3481C7.97419 37.3343 8.01044 37.3135 8.05022 37.2926L8.05535 37.2824C8.02455 37.2467 7.98574 37.1919 7.9527 37.1402L7.47382 36.3932C7.42024 36.3098 7.34968 36.1818 7.34968 36.1818L7.33845 36.1822C7.19701 36.3006 7.01995 36.4278 6.81722 36.5578L6.15583 36.9819C5.95311 37.1117 5.75521 37.225 5.59676 37.2987L5.59034 37.3065C5.59034 37.3065 5.67695 37.4237 5.73212 37.5098L6.22672 38.2812C6.25976 38.3328 6.29312 38.3912 6.31301 38.4339L6.32422 38.4335C6.35758 38.4072 6.39126 38.3839 6.41853 38.3666C6.44548 38.3491 6.54684 38.2876 6.56992 38.2761L6.57763 38.2642C6.57763 38.2642 6.26329 37.9044 6.05222 37.5752C6.10612 37.5166 6.33674 37.3651 6.3826 37.3356ZM8.81585 38.1814C8.65195 37.9727 8.43609 37.8286 8.2 37.7821C7.90234 37.7234 7.56299 37.8225 7.28553 38.0406C7.0209 38.2487 6.83776 38.5558 6.84642 38.8422C6.85315 39.0596 6.91698 39.2329 7.06999 39.4272C7.23068 39.6319 7.48151 39.8055 7.8523 39.8259L7.89464 39.7034C7.57774 39.674 7.43597 39.5816 7.2682 39.3682C7.07159 39.118 7.19829 38.7143 7.62745 38.3768C8.13938 37.9745 8.51659 38.0862 8.66445 38.2745C8.82675 38.4811 8.81649 38.6856 8.6837 38.9423L8.74016 39.0093C8.87519 38.9163 8.95892 38.8678 9.10422 38.7977L9.10806 38.787C9.10806 38.787 9.0359 38.4614 8.81585 38.1814ZM10.4321 40.0575L9.52985 39.1113C9.46153 39.0394 9.37172 38.9317 9.37172 38.9317L9.36274 38.9361C9.25368 39.0725 9.09267 39.2339 8.91882 39.4L8.3498 39.942C8.17595 40.1082 8.01204 40.2522 7.86353 40.3616L7.86064 40.3725C7.86064 40.3725 7.96425 40.4671 8.03257 40.539C8.10313 40.613 8.18685 40.7147 8.18685 40.7147L8.19584 40.71C8.30265 40.5758 8.4659 40.4122 8.63975 40.2464L9.20878 39.7041C9.24823 39.6665 9.44999 39.4783 9.51959 39.4398C9.55455 39.4347 9.57188 39.4343 9.60203 39.4661L10.0572 39.9434C10.0873 39.975 10.0864 39.9925 10.0796 40.027C10.0379 40.0947 9.84034 40.2875 9.80056 40.3251L9.23187 40.8671C9.05771 41.0332 8.88673 41.1885 8.74753 41.2889L8.74272 41.2975C8.74272 41.2975 8.86429 41.4115 8.93485 41.4852C9.00317 41.5571 9.06892 41.6398 9.06892 41.6398L9.07983 41.6372C9.19594 41.4942 9.34766 41.3373 9.52184 41.1715L10.0908 40.6291C10.2647 40.463 10.4337 40.3103 10.5752 40.2077L10.58 40.199C10.58 40.199 10.5008 40.1294 10.4321 40.0575ZM9.99816 42.1244C9.92534 42.1611 9.8089 42.1838 9.75759 42.1392C9.68285 42.0748 9.70819 41.9006 9.73674 41.83L9.66746 41.7777C9.59849 41.8397 9.39289 41.9593 9.32682 41.9751L9.32137 41.9836C9.32842 42.0471 9.44966 42.1896 9.51959 42.2499C9.62608 42.3423 9.75855 42.3943 9.92887 42.3797C10.0739 42.3676 10.1624 42.3279 10.341 42.236L11.9317 41.4205C11.8986 41.4047 11.8502 41.3626 11.8261 41.3418C11.8018 41.3206 11.6937 41.227 11.6735 41.1968C11.4111 41.3832 10.9287 41.6863 10.5056 41.9124C10.7567 41.2065 10.8655 40.9977 11.0493 40.656C11.0053 40.631 10.8886 40.5296 10.851 40.4973C10.8135 40.4649 10.6679 40.3388 10.6368 40.2991C10.5576 40.5634 10.2387 41.5029 9.99816 42.1244ZM11.8123 42.6559L11.9846 42.791C12.3172 43.0527 12.1883 43.2734 12.0693 43.4248C11.9464 43.581 11.7758 43.7369 11.4271 43.4627C11.3011 43.3635 11.311 43.2939 11.3764 43.2108L11.8123 42.6559ZM11.7283 42.0879L11.2427 42.7057C11.0939 42.8949 10.9486 43.0704 10.8231 43.1923L10.8196 43.2015C10.8196 43.2015 10.9402 43.284 11.0185 43.3452C11.0849 43.3975 11.361 43.6268 11.4438 43.692C11.7212 43.9101 12.0981 44.1247 12.4471 43.6808C12.6235 43.4566 12.7473 43.1621 12.2515 42.7724L11.9236 42.5144L12.0564 42.3458C12.0901 42.3028 12.2585 42.0886 12.322 42.0405C12.6296 42.2822 13.0091 42.7108 13.0091 42.7108L13.0216 42.7043C13.0466 42.663 13.1637 42.5142 13.2237 42.4471L13.2249 42.4359C13.1842 42.4122 13.1297 42.3734 13.0812 42.3355L12.2967 41.7188C12.2187 41.6575 12.1122 41.5615 12.1122 41.5615L12.1017 41.5654C12.007 41.7235 11.8768 41.8987 11.7283 42.0879ZM13.8228 43.1217L14.2136 43.3719C14.1946 43.4284 14.1276 43.5492 14.0099 43.733L13.6031 44.3674C13.4488 44.6078 13.3257 44.7841 13.2323 44.8919L13.2294 44.9016C13.3115 44.9465 13.3821 44.9879 13.4386 45.0241C13.495 45.0603 13.5572 45.1039 13.6275 45.1566L13.6378 45.1518C13.7106 45.0003 13.8164 44.813 13.9569 44.5943L14.3809 43.9326C14.5349 43.6924 14.6564 43.5188 14.7517 43.4084L14.7543 43.3989C14.67 43.352 14.6019 43.3122 14.5455 43.2759L13.7985 42.7974C13.7436 42.7621 13.6981 42.7284 13.6538 42.6931L13.6419 42.7009C13.5807 42.8292 13.5265 42.9241 13.452 43.0403C13.2272 43.3911 12.9921 43.709 12.8218 43.8668C12.6447 44.035 12.4401 44.1325 12.3066 44.108L12.205 44.2181C12.2229 44.2601 12.4349 44.4377 12.4792 44.466C12.5405 44.5055 12.5866 44.5198 12.722 44.4275C12.9693 44.2584 13.2593 43.8386 13.7006 43.1499C13.7266 43.1096 13.7811 43.0948 13.8228 43.1217ZM14.7816 44.1247L14.4232 44.8243C14.3136 45.0385 14.1993 45.2358 14.0996 45.3791L14.0981 45.3891C14.0981 45.3891 14.227 45.4445 14.3177 45.4912C14.4062 45.5364 14.5266 45.6088 14.5266 45.6088L14.5362 45.6028C14.5721 45.5011 14.618 45.3917 14.671 45.2755L15.8875 44.629C15.8789 44.6453 15.8706 44.6616 15.8622 44.6783L15.504 45.3776C15.3943 45.5918 15.28 45.7891 15.1803 45.9328L15.1784 45.9424C15.1784 45.9424 15.3076 45.9979 15.3984 46.0444C15.4865 46.0896 15.6069 46.1621 15.6069 46.1621L15.6165 46.156C15.679 45.9828 15.7683 45.7833 15.8779 45.5694L16.2361 44.8698C16.346 44.6555 16.4613 44.4554 16.5598 44.3149L16.5614 44.3049C16.5614 44.3049 16.4325 44.2495 16.3414 44.203C16.2531 44.1578 16.133 44.0853 16.133 44.0853L16.1233 44.0914C16.0873 44.1918 16.0421 44.3015 15.9893 44.4172L14.7729 45.0635C14.7809 45.0479 14.7892 45.0314 14.7972 45.0158L15.1556 44.3165C15.2652 44.1023 15.381 43.902 15.4792 43.7612L15.4811 43.7513C15.4811 43.7513 15.3518 43.6961 15.2611 43.6496C15.1726 43.6044 15.0523 43.5319 15.0523 43.5319L15.0427 43.538C14.9801 43.7112 14.8913 43.9108 14.7816 44.1247ZM16.5797 45.0375L16.2913 45.7686C16.2032 45.9925 16.1089 46.2 16.0236 46.3527L16.0229 46.3626C16.0229 46.3626 16.1566 46.4049 16.2516 46.4424C16.344 46.4791 16.4707 46.5394 16.4707 46.5394L16.4797 46.5323C16.5249 46.3536 16.5942 46.1464 16.6823 45.9228L16.8136 45.5899C17.0752 45.7243 17.0956 45.9228 17.1019 46.1951C17.1063 46.3831 17.1112 46.5297 17.1455 46.8088C17.2077 46.8265 17.2642 46.8418 17.3322 46.8684C17.3944 46.8931 17.585 46.9753 17.6181 46.9951L17.6308 46.9861C17.5182 46.6352 17.5719 46.3562 17.5077 46.0896C17.4569 45.8834 17.4112 45.7377 17.2379 45.6281C17.2225 45.6184 17.2145 45.6079 17.2164 45.6023C17.4942 45.4394 18.0854 45.1967 18.4147 45.0613C18.368 45.053 18.205 44.9888 18.1642 44.9728C18.129 44.959 17.9714 44.8967 17.9398 44.874C17.6228 45.0718 17.3149 45.2551 17.0229 45.3917C16.9589 45.4214 16.912 45.4398 16.8719 45.4418L16.9707 45.1919C17.0589 44.968 17.1545 44.7572 17.2386 44.6078L17.2395 44.5978C17.2395 44.5978 17.1054 44.5551 17.0105 44.5179C16.9181 44.4814 16.7914 44.4211 16.7914 44.4211L16.7824 44.4279C16.7372 44.6064 16.6679 44.8137 16.5797 45.0375ZM18.331 45.7368L18.1165 46.4929C18.0507 46.7241 17.9772 46.9399 17.9073 47.1003L17.9077 47.1103C17.9077 47.1103 18.0449 47.1395 18.1433 47.167C18.2386 47.1944 18.3709 47.2418 18.3709 47.2418L18.3792 47.2341C18.3949 47.1276 18.418 47.0111 18.4475 46.8868L19.5139 46.0149C19.5088 46.0329 19.504 46.0505 19.4989 46.0684L19.2844 46.8245C19.2185 47.0558 19.1451 47.2717 19.0752 47.432L19.0755 47.4419C19.0755 47.4419 19.2129 47.4708 19.3109 47.4988C19.4065 47.526 19.5387 47.5735 19.5387 47.5735L19.5467 47.5657C19.5742 47.3836 19.6228 47.1706 19.6885 46.9391L19.9031 46.1834C19.9688 45.9517 20.0432 45.7326 20.1122 45.5758L20.1118 45.5656C20.1118 45.5656 19.9746 45.5367 19.8762 45.5087C19.7809 45.4815 19.6486 45.434 19.6486 45.434L19.6404 45.4418C19.6246 45.5473 19.6019 45.6636 19.5727 45.7875L18.5061 46.659C18.511 46.642 18.5158 46.6243 18.5206 46.6077L18.7352 45.8516C18.801 45.6201 18.8754 45.4013 18.9443 45.2441L18.944 45.2339C18.944 45.2339 18.8067 45.205 18.7086 45.1771C18.613 45.1498 18.4808 45.1024 18.4808 45.1024L18.4725 45.11C18.4453 45.2923 18.3969 45.5053 18.331 45.7368ZM24.0925 46.8764C24.0982 46.6362 24.1101 46.4052 24.1377 46.2359L24.1351 46.2262C24.1351 46.2262 24.0007 46.2327 23.8985 46.2301C23.7993 46.2276 23.6651 46.2143 23.6651 46.2143L23.659 46.224C23.678 46.4071 23.6784 46.6257 23.6722 46.8659L23.6704 46.9396C23.6624 47.2572 23.7784 47.5134 24.111 47.5221C24.2683 47.526 24.5246 47.4881 24.7339 47.3566L24.7259 47.6787C24.7198 47.9192 24.7026 48.1466 24.6746 48.3192L24.6772 48.3289C24.6772 48.3289 24.8176 48.3228 24.9197 48.3253C25.0187 48.3279 25.1587 48.341 25.1587 48.341L25.1648 48.3314C25.1461 48.1482 25.14 47.9299 25.1458 47.6892L25.1657 46.9037C25.1718 46.6631 25.1894 46.4326 25.217 46.2632L25.2144 46.2535C25.2144 46.2535 25.0743 46.2596 24.972 46.2571C24.8728 46.2545 24.733 46.2413 24.733 46.2413L24.7269 46.251C24.7456 46.4344 24.7519 46.6526 24.7458 46.8931L24.7384 47.185C24.5655 47.289 24.4016 47.2951 24.324 47.2931C24.1139 47.288 24.0841 47.2005 24.0908 46.9374L24.0925 46.8764ZM26.1359 48.051C26.1068 48.1271 26.0362 48.2227 25.9682 48.2243C25.8697 48.2268 25.771 48.0812 25.7444 48.0097L25.6581 48.0177C25.6487 48.1098 25.5776 48.3369 25.539 48.393L25.5412 48.4029C25.5891 48.4449 25.7745 48.4687 25.8668 48.4665C26.008 48.4629 26.1408 48.4119 26.257 48.2866C26.356 48.1796 26.3946 48.0911 26.4647 47.9025L27.0909 46.2286C27.0559 46.2391 26.9918 46.2408 26.9597 46.2413C26.9276 46.2423 26.7849 46.2459 26.7496 46.2372C26.681 46.5518 26.5286 47.1003 26.3681 47.5526C26.0783 46.8617 26.018 46.6342 25.9239 46.258C25.8745 46.269 25.7199 46.2728 25.6703 46.2741C25.6209 46.2753 25.4281 46.2802 25.3783 46.2719C25.4979 46.5207 25.8951 47.4298 26.1359 48.051ZM27.7096 46.4784C27.6961 46.3735 27.7202 46.3315 27.9546 46.3016C28.117 46.2811 28.226 46.3536 28.2613 46.6313C28.2908 46.8637 28.2466 46.9763 28.0059 47.0067L27.7801 47.0352L27.7096 46.4784ZM27.8017 47.2039L28.0711 47.1696C28.4098 47.1266 28.4964 47.3932 28.5253 47.6196C28.5532 47.8394 28.5516 47.9882 28.1635 48.0376C27.9611 48.0632 27.9062 48.025 27.8928 47.9199L27.8017 47.2039ZM27.4742 46.2012C27.3757 46.2138 27.2298 46.2228 27.2298 46.2228L27.2252 46.233C27.2714 46.4113 27.3106 46.6262 27.341 46.8649L27.4401 47.6443C27.4703 47.883 27.4873 48.1104 27.4861 48.2852L27.4902 48.2946C27.4902 48.2946 27.6339 48.2666 27.7349 48.2535C27.9434 48.2271 28.0115 48.228 28.269 48.1954C28.845 48.1222 29.0183 47.7736 28.9836 47.5C28.9449 47.1946 28.7055 47.0471 28.4435 46.9996C28.5812 46.9012 28.71 46.7135 28.6879 46.5384C28.661 46.3251 28.4803 46.0636 27.9422 46.1319C27.8408 46.1452 27.6567 46.1781 27.4742 46.2012ZM30.1903 46.9826C30.1089 46.9989 30.0191 47.0166 29.951 47.0285C29.8677 47.0436 29.741 47.0644 29.6498 47.0767L29.7955 46.3395L29.8127 46.3366C29.9613 46.5771 30.0848 46.7947 30.1903 46.9826ZM29.6146 47.2668C29.7233 47.2447 29.8923 47.2119 29.9953 47.1934C30.0874 47.1769 30.1871 47.1609 30.2817 47.1462C30.487 47.5199 30.5919 47.7456 30.6214 47.8115C30.6686 47.7932 30.8036 47.7692 30.8524 47.7604C30.9015 47.7517 31.065 47.7226 31.1157 47.7232C30.9149 47.43 30.3292 46.4399 29.9584 45.7922L29.6999 45.8384C29.5494 46.5887 29.3882 47.3117 29.2223 48.0613C29.2552 48.0456 29.35 48.0289 29.3817 48.0231C29.4132 48.0174 29.4763 48.0062 29.5125 48.0094C29.5241 47.814 29.5645 47.5501 29.6146 47.2668ZM33.5034 46.2459L33.2515 45.5014C33.1746 45.2736 33.1131 45.0642 33.0764 44.8836L33.0679 44.8763C33.0679 44.8763 32.941 44.9291 32.8471 44.9612C32.7503 44.994 32.62 45.0276 32.62 45.0276L32.6203 45.0379C32.6971 45.1912 32.7766 45.4083 32.8535 45.6361L33.0964 46.3533C33.1136 46.4049 33.2138 46.7096 33.2189 46.7893C33.2199 46.8194 33.2067 46.844 33.1569 46.8608L32.8282 46.972C32.7785 46.989 32.7528 46.9772 32.7352 46.9527C32.6913 46.8864 32.5857 46.5836 32.5685 46.5316L32.3256 45.8148C32.2486 45.587 32.18 45.3663 32.1476 45.1977L32.1418 45.1897C32.1418 45.1897 32.0176 45.2415 31.9211 45.2743C31.8271 45.3064 31.694 45.341 31.694 45.341L31.6915 45.3519C31.7722 45.5177 31.8505 45.7214 31.9276 45.9495L32.17 46.6663C32.1877 46.718 32.2877 47.023 32.2928 47.1023C32.2938 47.1324 32.2806 47.1574 32.231 47.1742L31.9076 47.2834C31.858 47.3004 31.8323 47.2886 31.815 47.2642C31.7707 47.1978 31.6652 46.8951 31.6478 46.8431L31.405 46.1262C31.328 45.8985 31.2594 45.6777 31.227 45.5091L31.2212 45.5011C31.2212 45.5011 31.097 45.553 31.0005 45.5858C30.9066 45.6178 30.7734 45.6524 30.7734 45.6524L30.7709 45.6633C30.8517 45.8292 30.93 46.0329 31.007 46.261L31.2591 47.0054C31.336 47.2331 31.4034 47.4506 31.4367 47.6221L31.4428 47.6306C31.4428 47.6306 31.5696 47.5773 31.6664 47.5446L33.5102 46.9207C33.6041 46.889 33.7344 46.855 33.7344 46.855L33.7368 46.844C33.6561 46.6785 33.581 46.4735 33.5034 46.2459ZM34.236 44.3582C33.9941 44.4676 33.8027 44.6427 33.701 44.8605C33.573 45.1357 33.588 45.4888 33.7334 45.8106C33.872 46.1175 34.1266 46.3684 34.4067 46.4283C34.6194 46.4742 34.8028 46.4533 35.0282 46.3514C35.2652 46.2442 35.494 46.0424 35.6024 45.6871L35.4937 45.6166C35.3892 45.9174 35.2652 46.0332 35.0184 46.1448C34.7283 46.276 34.3665 46.0563 34.1417 45.5591C33.8735 44.9657 34.0721 44.6261 34.2902 44.5276C34.5295 44.4192 34.7257 44.4782 34.9433 44.6687L35.0218 44.6295C34.9637 44.4763 34.9365 44.3835 34.9032 44.2257L34.8939 44.2193C34.8939 44.2193 34.5606 44.2116 34.236 44.3582ZM35.4135 44.5724L35.8055 45.2537C35.9251 45.4622 36.0287 45.6656 36.0948 45.8272L36.1021 45.8343C36.1021 45.8343 36.2186 45.756 36.3071 45.7051C36.3934 45.6556 36.5194 45.5941 36.5194 45.5941L36.5198 45.5828C36.4085 45.436 36.2895 45.2529 36.1695 45.0443L35.9912 44.7341C36.2596 44.6132 36.4274 44.7216 36.6443 44.8862C36.7936 44.9998 36.9115 45.0876 37.151 45.2349C37.2033 45.1973 37.2507 45.1627 37.3139 45.126C37.3723 45.0927 37.5551 44.9949 37.5911 44.9818L37.5923 44.966C37.2476 44.8352 37.0632 44.6193 36.8145 44.5032C36.6217 44.414 36.4794 44.3591 36.2856 44.4262C36.2686 44.4323 36.2551 44.432 36.2523 44.4269C36.2978 44.1084 36.4771 43.4947 36.5765 43.1524C36.541 43.1842 36.3892 43.2715 36.3511 43.2934C36.3183 43.3122 36.1714 43.3965 36.1339 43.4072C36.0909 43.7783 36.0418 44.1333 35.9667 44.4467C35.9501 44.5154 35.9353 44.5635 35.912 44.5962L35.7778 44.363C35.6579 44.1546 35.5531 43.9482 35.4886 43.7895L35.4811 43.7824C35.4811 43.7824 35.3644 43.8607 35.2759 43.9117C35.1899 43.9611 35.0636 44.0224 35.0636 44.0224V44.0336C35.1748 44.1804 35.2935 44.364 35.4135 44.5724ZM38.1844 43.5602C38.1151 43.6063 38.0392 43.657 37.9811 43.6943C37.9096 43.7401 37.8009 43.8079 37.721 43.8539L37.5731 43.1176L37.5879 43.1082C37.8175 43.2734 38.0149 43.4271 38.1844 43.5602ZM37.7614 44.0433C37.8535 43.9813 37.9969 43.886 38.085 43.8296C38.1637 43.7792 38.2496 43.726 38.3314 43.6759C38.6643 43.9428 38.8479 44.1109 38.9001 44.1603C38.9367 44.1257 39.0521 44.0515 39.0942 44.0246C39.1358 43.998 39.2761 43.9081 39.3228 43.8896C39.0252 43.6956 38.1043 43.0056 37.5141 42.5494L37.2931 42.6912C37.4413 43.4422 37.5692 44.1716 37.7037 44.9276C37.728 44.9003 37.8092 44.8483 37.8362 44.831C37.8631 44.8137 37.9174 44.779 37.9519 44.7685C37.8878 44.5833 37.8236 44.3241 37.7614 44.0433ZM39.0047 41.6626C39.147 41.5506 39.2026 41.5885 39.26 41.6617L39.659 42.1691L39.5807 42.2304C39.3581 42.4052 39.2426 42.4757 38.9948 42.1601C38.7609 41.8625 38.8647 41.7726 39.0047 41.6626ZM39.3225 42.5973C39.3447 42.9238 39.448 43.5371 39.4453 43.7722L39.4556 43.776C39.4957 43.7323 39.6173 43.6372 39.6632 43.601C39.7067 43.5665 39.7986 43.4945 39.8482 43.4678C39.8059 43.3622 39.7623 43.0989 39.7344 42.8273C39.7203 42.681 39.6879 42.5149 39.6843 42.3763C39.7135 42.3539 39.7427 42.3317 39.7699 42.3102L39.9598 42.5521C40.1084 42.7413 40.2387 42.9161 40.3333 43.0746L40.3438 43.0784C40.3438 43.0784 40.4432 42.988 40.5215 42.9267C40.6017 42.8635 40.7133 42.7881 40.7133 42.7881L40.7094 42.7789C40.584 42.6569 40.4342 42.485 40.2854 42.2961L39.8001 41.678C39.6513 41.4891 39.5258 41.3101 39.4312 41.152L39.4207 41.1481C39.4207 41.1481 39.3119 41.2459 39.234 41.3072C39.165 41.3611 38.9194 41.5256 38.862 41.5708C38.7105 41.6899 38.5649 41.8207 38.5187 41.9792C38.4761 42.1188 38.5082 42.273 38.6371 42.4368C38.8446 42.7009 39.091 42.6963 39.3225 42.5973ZM40.6649 40.3227C40.6007 40.2554 40.5844 40.2045 40.7367 40.0594C40.8612 39.9407 41 39.8833 41.2638 40.1598C41.487 40.3944 41.4748 40.5923 41.352 40.7093C41.2993 40.7596 41.206 40.835 41.1631 40.845L40.6649 40.3227ZM40.6197 40.8758L41.1621 41.4445C41.3279 41.6186 41.4768 41.7915 41.5794 41.933L41.5879 41.9378C41.5879 41.9378 41.6827 41.8341 41.7567 41.764C41.8286 41.6953 41.9322 41.6097 41.9322 41.6097L41.93 41.5987C41.7868 41.4823 41.6278 41.3325 41.462 41.1584L41.2759 40.9636C41.3379 40.9354 41.4141 40.8761 41.4882 40.8056C41.8726 40.4389 41.7705 40.053 41.5427 39.8141C41.4622 39.7297 41.3073 39.6261 41.1028 39.6485C40.9737 39.6626 40.8378 39.7503 40.6873 39.8936C40.6325 39.9459 40.3923 40.206 40.3291 40.2663C40.2572 40.335 40.1492 40.4245 40.1492 40.4245L40.1517 40.4357C40.2947 40.5518 40.4534 40.7015 40.6197 40.8758ZM42.6308 39.9279L42.3616 39.6947C42.4535 39.5889 42.6898 39.3304 42.8386 39.1928L42.837 39.1799C42.8117 39.1655 42.761 39.1257 42.7392 39.1068C42.7173 39.0878 42.6735 39.0459 42.6555 39.0224L42.6424 39.0228C42.5416 39.1636 42.4393 39.3063 42.2138 39.5665L42.0367 39.4131C41.9957 39.3776 41.777 39.1841 41.7321 39.1184C41.9881 38.823 42.3074 38.5128 42.3074 38.5128L42.3017 38.4999C42.2802 38.4855 42.2203 38.4371 42.1984 38.4182C42.1792 38.4014 42.1486 38.3726 42.1175 38.3401L42.1063 38.3386C42.0807 38.378 42.039 38.4306 41.9988 38.4772L41.418 39.1476C41.3532 39.2227 41.2502 39.3265 41.2502 39.3265L41.2538 39.3375C41.4075 39.4394 41.5797 39.5735 41.7615 39.7309L42.3555 40.2454C42.5374 40.403 42.702 40.5608 42.8175 40.692L42.8267 40.6959C42.8267 40.6959 42.915 40.5794 42.9821 40.5021L43.5819 39.8096C43.622 39.7634 43.6685 39.7146 43.7037 39.6835L43.7001 39.673C43.6656 39.6485 43.6335 39.6226 43.6091 39.6018C43.5851 39.5806 43.4971 39.5007 43.4798 39.4817L43.466 39.4776C43.466 39.4776 43.2101 39.8811 42.9538 40.1768C42.8826 40.1418 42.6718 39.9636 42.6308 39.9279ZM42.8162 37.3863C42.6622 37.6028 42.5853 37.8507 42.6071 38.09C42.6349 38.3921 42.8262 38.6898 43.1139 38.8942C43.3881 39.0895 43.7346 39.178 44.0065 39.0888C44.2134 39.0212 44.3616 38.9108 44.5049 38.709C44.6557 38.497 44.7512 38.2074 44.666 37.8459L44.5365 37.8398C44.598 38.1522 44.5492 38.3146 44.3921 38.5356C44.2076 38.795 43.7845 38.7877 43.3397 38.4714C42.8092 38.0938 42.8094 37.7004 42.948 37.5053C43.1004 37.2914 43.2999 37.2433 43.5834 37.2984L43.6315 37.225C43.5042 37.122 43.4343 37.0553 43.3256 36.9359L43.3143 36.935C43.3143 36.935 43.0227 37.0964 42.8162 37.3863ZM44.1614 35.3212L43.5097 36.4548C43.4603 36.5408 43.382 36.6575 43.382 36.6575L43.3891 36.6646C43.5508 36.731 43.7512 36.8394 43.9597 36.9593L44.641 37.351C44.8494 37.4709 45.0342 37.5871 45.1811 37.6984H45.1923C45.1923 37.6984 45.2536 37.572 45.3033 37.486C45.354 37.3975 45.4278 37.2885 45.4278 37.2885L45.421 37.281C45.262 37.2166 45.059 37.1066 44.8504 36.9866L44.1691 36.595C44.1217 36.5676 43.8839 36.4275 43.8275 36.3717C43.8127 36.3397 43.8073 36.323 43.8292 36.2851L44.1579 35.7132C44.1798 35.6753 44.1968 35.6716 44.232 35.6683C44.3089 35.6889 44.5496 35.8238 44.5968 35.8511L45.278 36.2428C45.4865 36.3628 45.6837 36.483 45.8194 36.588L45.8293 36.5902C45.8293 36.5902 45.9041 36.4414 45.9548 36.3529C46.0041 36.2666 46.0651 36.1803 46.0651 36.1803L46.0596 36.1706C45.8893 36.0998 45.696 35.9984 45.4874 35.8785L44.8061 35.4868C44.5977 35.3668 44.403 35.2485 44.2647 35.1416L44.2547 35.1394C44.2547 35.1394 44.2109 35.2354 44.1614 35.3212ZM46.2961 35.134C46.3489 35.1958 46.399 35.3035 46.3679 35.3643C46.3231 35.4518 46.1478 35.4688 46.0725 35.4579L46.0382 35.5378C46.1148 35.5901 46.28 35.7611 46.3107 35.8216L46.3207 35.8245C46.3807 35.8027 46.4901 35.6514 46.5322 35.5688C46.5966 35.4435 46.6152 35.3023 46.5607 35.1403C46.5142 35.0025 46.4549 34.9261 46.3231 34.7744L45.1519 33.4237C45.1446 33.4593 45.1154 33.5164 45.1009 33.5449C45.0862 33.5738 45.0211 33.7007 44.9963 33.7277C45.2401 33.9382 45.6491 34.3346 45.9696 34.6916C45.2238 34.6159 44.9953 34.5597 44.6201 34.4627C44.606 34.5113 44.5355 34.649 44.5127 34.6932C44.4903 34.7372 44.4023 34.9088 44.3712 34.9485C44.6471 34.9623 45.6353 35.0482 46.2961 35.134ZM46.2893 33.29L46.3695 33.0863C46.5247 32.6926 46.7734 32.7529 46.9523 32.8235C47.1374 32.8964 47.3353 33.0153 47.1727 33.4279C47.1136 33.5774 47.044 33.5876 46.9456 33.5487L46.2893 33.29ZM45.769 33.5334L46.5001 33.8213C46.724 33.91 46.9337 33.9988 47.0864 34.0841L47.0963 34.0848C47.0963 34.0848 47.141 33.9455 47.1772 33.8532C47.2083 33.7746 47.3487 33.4442 47.3876 33.3464C47.5169 33.0179 47.6147 32.5951 47.0895 32.3882C46.824 32.2834 46.5065 32.2494 46.2752 32.8358L46.1222 33.2239L45.9221 33.1449C45.8714 33.125 45.6177 33.025 45.5538 32.9778C45.6972 32.6141 45.999 32.1278 45.999 32.1278L45.9895 32.1176C45.9426 32.1054 45.7665 32.0361 45.6851 31.9975L45.6739 31.9995C45.6629 32.0451 45.6411 32.1089 45.6187 32.166L45.2526 33.0943C45.2161 33.1867 45.1548 33.3163 45.1548 33.3163L45.1616 33.3252C45.3403 33.3705 45.5451 33.4452 45.769 33.5334ZM46.2101 31.2423L46.3368 30.7957C46.3965 30.7973 46.5315 30.8268 46.7413 30.8861L47.4666 31.0921C47.7411 31.1701 47.9454 31.2374 48.0756 31.2955H48.0856C48.1048 31.2037 48.1241 31.1241 48.1426 31.0597C48.161 30.9952 48.1846 30.923 48.2148 30.8406L48.2072 30.8323C48.0409 30.8063 47.8311 30.7589 47.5814 30.6879L46.8252 30.4734C46.5507 30.3954 46.3493 30.329 46.2162 30.27H46.2059C46.1857 30.3646 46.1675 30.4413 46.1492 30.5058L45.9066 31.3593C45.8891 31.4219 45.8697 31.4752 45.849 31.5277L45.8595 31.537C46.0003 31.5584 46.1068 31.5829 46.2392 31.6204C46.6406 31.7342 47.0129 31.8674 47.2128 31.9848C47.4251 32.106 47.5778 32.2734 47.5928 32.4082L47.7275 32.4738C47.7625 32.4444 47.8717 32.19 47.8858 32.1397C47.9057 32.0694 47.9062 32.021 47.7786 31.918C47.5454 31.7305 47.0594 31.5742 46.2726 31.351C46.2261 31.3378 46.1967 31.2897 46.2101 31.2423ZM46.9523 30.0628L47.726 30.2011C47.9627 30.2434 48.185 30.2947 48.3514 30.3483L48.3614 30.347C48.3614 30.347 48.3765 30.2075 48.3944 30.1068C48.4117 30.0093 48.4458 29.8729 48.4458 29.8729L48.4375 29.8656C48.3296 29.8607 48.2119 29.8488 48.0849 29.8322L47.1111 28.858C47.1294 28.8612 47.1474 28.8645 47.1656 28.8677L47.9393 29.0059C48.1763 29.0482 48.3983 29.0995 48.5647 29.1532L48.5746 29.1519C48.5746 29.1519 48.5897 29.0124 48.6077 28.912C48.6254 28.814 48.6594 28.6781 48.6594 28.6781L48.651 28.6704C48.4669 28.6614 48.25 28.6345 48.0134 28.5922L47.2397 28.4539C47.0027 28.4119 46.7775 28.3596 46.6142 28.3066L46.6042 28.308C46.6042 28.308 46.5892 28.4475 46.5713 28.5482C46.5536 28.6457 46.5196 28.782 46.5196 28.782L46.528 28.7894C46.6348 28.7945 46.7528 28.8058 46.8789 28.8225L47.8524 29.7966C47.835 29.7937 47.817 29.7905 47.7997 29.7873L47.0261 29.649C46.7894 29.6067 46.5643 29.5547 46.4009 29.5018L46.391 29.5031C46.391 29.5031 46.3756 29.6426 46.3576 29.7433C46.3404 29.8408 46.3063 29.9772 46.3063 29.9772L46.3146 29.9845C46.4987 29.9935 46.7156 30.0205 46.9523 30.0628ZM47.3247 27.9827L48.1044 28.0819C48.3431 28.112 48.5676 28.1524 48.7363 28.1974L48.7463 28.1957C48.7463 28.1957 48.7543 28.0555 48.7674 27.9542C48.7796 27.8557 48.8069 27.7181 48.8069 27.7181L48.7983 27.7111C48.6138 27.7111 48.3961 27.6953 48.1574 27.6649L47.8026 27.6199C47.8681 27.3328 48.0557 27.2645 48.3178 27.1911C48.499 27.1404 48.6398 27.0996 48.9019 26.9977C48.9035 26.9333 48.9044 26.8745 48.9138 26.802C48.9221 26.7353 48.9548 26.5307 48.966 26.4937L48.9542 26.4835C48.6417 26.6792 48.3582 26.6962 48.1158 26.8241C47.9284 26.9238 47.7985 27.0043 47.735 27.1995C47.7295 27.2164 47.7212 27.227 47.7151 27.2263C47.489 26.9973 47.1079 26.4842 46.8952 26.1983C46.8988 26.2459 46.877 26.4197 46.8712 26.463C46.8667 26.5005 46.8452 26.6685 46.8308 26.7048C47.1009 26.9634 47.3543 27.2168 47.5585 27.4656C47.6035 27.5205 47.6327 27.5616 47.6446 27.5997L47.3779 27.5657C47.1391 27.5356 46.9115 27.4949 46.7457 27.4502L46.7358 27.4519C46.7358 27.4519 46.7277 27.592 46.715 27.6934C46.7024 27.7918 46.6752 27.9295 46.6752 27.9295L46.6842 27.9365C46.8683 27.9365 47.0861 27.9523 47.3247 27.9827ZM48.0682 25.1883C48.0676 25.2714 48.0669 25.3628 48.0653 25.4321C48.0631 25.5167 48.0582 25.6447 48.0516 25.7368L47.3591 25.4462L47.3594 25.4289C47.6249 25.3314 47.8629 25.2541 48.0682 25.1883ZM48.2311 25.8093C48.2311 25.6983 48.2328 25.5264 48.2357 25.4219C48.2379 25.3285 48.242 25.2271 48.2466 25.1316C48.6539 25.0054 48.8961 24.948 48.9666 24.9323C48.9583 24.8823 48.9619 24.7453 48.9631 24.6956C48.9644 24.6463 48.9685 24.4797 48.9792 24.4304C48.6517 24.5683 47.5643 24.9436 46.8558 25.1768L46.849 25.4392C47.5537 25.7371 48.2296 26.0405 48.9308 26.3529C48.9221 26.3177 48.9243 26.2214 48.9253 26.1893C48.9259 26.1572 48.9275 26.0932 48.9381 26.0582C48.7492 26.0079 48.4983 25.9155 48.2311 25.8093Z" fill="#009FD9"/>
</g>
</svg>
