<svg width="51" height="51" viewBox="0 0 51 51" fill="none" xmlns="http://www.w3.org/2000/svg">
<path d="M4.71621 41.245V12.9577L7.07432 16.0516H0V10.3058H10.1736V41.245H4.71621ZM22.3549 41.7754C20.4235 41.7754 18.6942 41.1566 17.1671 39.919C15.6399 38.652 14.4384 36.8251 13.5625 34.4384C12.6867 32.0516 12.2487 29.164 12.2487 25.7754C12.2487 22.3868 12.6867 19.4991 13.5625 17.1124C14.4384 14.7257 15.6399 12.9135 17.1671 11.6759C18.6942 10.4089 20.4235 9.77539 22.3549 9.77539C24.3087 9.77539 26.038 10.4089 27.5427 11.6759C29.0699 12.9135 30.2714 14.7257 31.1473 17.1124C32.0231 19.4991 32.4611 22.3868 32.4611 25.7754C32.4611 29.164 32.0231 32.0516 31.1473 34.4384C30.2714 36.8251 29.0699 38.652 27.5427 39.919C26.038 41.1566 24.3087 41.7754 22.3549 41.7754ZM22.3549 35.7201C23.2757 35.7201 24.0729 35.3813 24.7467 34.7036C25.4429 34.0259 25.9819 32.9504 26.3637 31.4771C26.7679 30.0038 26.97 28.1032 26.97 25.7754C26.97 23.4476 26.7679 21.5471 26.3637 20.0737C25.9819 18.6004 25.4429 17.5249 24.7467 16.8472C24.0729 16.1695 23.2757 15.8306 22.3549 15.8306C21.4566 15.8306 20.6593 16.1695 19.9631 16.8472C19.2893 17.5249 18.7504 18.6004 18.3461 20.0737C17.9643 21.5471 17.7734 23.4476 17.7734 25.7754C17.7734 28.1032 17.9643 30.0038 18.3461 31.4771C18.7504 32.9504 19.2893 34.0259 19.9631 34.7036C20.6593 35.3813 21.4566 35.7201 22.3549 35.7201ZM39.7928 35.9853V15.5654H44.1384V35.9853H39.7928ZM33.9649 28.4715V23.0793H50V28.4715H33.9649Z" fill="#009FD9"/>
</svg>
