<svg width="51" height="51" viewBox="0 0 51 51" fill="none" xmlns="http://www.w3.org/2000/svg">
<path d="M0.966548 41.245V36.6041L9.12178 25.3334C9.76614 24.4789 10.2393 23.7128 10.5414 23.0351C10.8434 22.3574 11.0448 21.7386 11.1455 21.1787C11.2663 20.6189 11.3267 20.1032 11.3267 19.6317C11.3267 18.3942 11.0347 17.4513 10.4508 16.803C9.88696 16.1253 9.0513 15.7864 7.9438 15.7864C7.05781 15.7864 6.23221 16.0369 5.46703 16.5378C4.72198 17.0387 4.08769 17.8196 3.56414 18.8803L0 15.5212C0.805457 13.7533 1.93309 12.3537 3.38292 11.3223C4.83274 10.291 6.50406 9.77539 8.39687 9.77539C9.96751 9.77539 11.3368 10.1584 12.5047 10.9246C13.6927 11.6612 14.6089 12.7072 15.2533 14.0627C15.9178 15.4181 16.2501 17.0387 16.2501 18.9245C16.2501 19.9264 16.1594 20.9283 15.9782 21.9301C15.8171 22.9025 15.4748 23.9338 14.9513 25.024C14.4479 26.1143 13.7028 27.3371 12.7161 28.6925L5.9503 38.0185L5.01396 35.4108H16.9448V41.245H0.966548ZM26.2128 41.7754C24.4811 41.7754 22.9306 41.1566 21.5613 39.919C20.192 38.652 19.1147 36.8251 18.3294 34.4384C17.5441 32.0516 17.1515 29.164 17.1515 25.7754C17.1515 22.3868 17.5441 19.4991 18.3294 17.1124C19.1147 14.7257 20.192 12.9135 21.5613 11.6759C22.9306 10.4089 24.4811 9.77539 26.2128 9.77539C27.9647 9.77539 29.5152 10.4089 30.8643 11.6759C32.2336 12.9135 33.3109 14.7257 34.0962 17.1124C34.8815 19.4991 35.2742 22.3868 35.2742 25.7754C35.2742 29.164 34.8815 32.0516 34.0962 34.4384C33.3109 36.8251 32.2336 38.652 30.8643 39.919C29.5152 41.1566 27.9647 41.7754 26.2128 41.7754ZM26.2128 35.7201C27.0384 35.7201 27.7533 35.3813 28.3574 34.7036C28.9816 34.0259 29.4649 32.9504 29.8072 31.4771C30.1696 30.0038 30.3509 28.1032 30.3509 25.7754C30.3509 23.4476 30.1696 21.5471 29.8072 20.0737C29.4649 18.6004 28.9816 17.5249 28.3574 16.8472C27.7533 16.1695 27.0384 15.8306 26.2128 15.8306C25.4074 15.8306 24.6925 16.1695 24.0683 16.8472C23.4642 17.5249 22.9809 18.6004 22.6185 20.0737C22.2762 21.5471 22.105 23.4476 22.105 25.7754C22.105 28.1032 22.2762 30.0038 22.6185 31.4771C22.9809 32.9504 23.4642 34.0259 24.0683 34.7036C24.6925 35.3813 25.4074 35.7201 26.2128 35.7201ZM41.848 35.9853V15.5654H45.7444V35.9853H41.848ZM36.6226 28.4715V23.0793H51V28.4715H36.6226Z" fill="#009FD9"/>
</svg>
