<svg width="21" height="21" viewBox="0 0 21 21" fill="none" xmlns="http://www.w3.org/2000/svg">
<path fill-rule="evenodd" clip-rule="evenodd" d="M1.70726 0.292893C1.31673 -0.0976311 0.683566 -0.0976311 0.293042 0.292893C-0.0974822 0.683418 -0.0974822 1.31658 0.293042 1.70711L8.66839 10.0825L0.292894 18.4579C-0.09763 18.8485 -0.0976304 19.4816 0.292894 19.8722C0.683418 20.2627 1.31658 20.2627 1.70711 19.8722L10.0826 11.4967L18.4581 19.8722C18.8486 20.2627 19.4818 20.2627 19.8723 19.8722C20.2628 19.4816 20.2628 18.8485 19.8723 18.4579L11.4968 10.0825L19.8722 1.70711C20.2627 1.31658 20.2627 0.683418 19.8722 0.292893C19.4816 -0.097631 18.8485 -0.0976311 18.4579 0.292893L10.0826 8.66824L1.70726 0.292893Z" fill="#3A3737"/>
</svg>
