<svg width="27" height="27" viewBox="0 0 27 27" fill="none" xmlns="http://www.w3.org/2000/svg">
<path d="M4.26777 0.732233C3.29146 -0.244078 1.70854 -0.244078 0.732233 0.732233C-0.244078 1.70854 -0.244078 3.29146 0.732233 4.26777L2.5 2.5L4.26777 0.732233ZM22.7322 26.2678C23.7085 27.2441 25.2915 27.2441 26.2678 26.2678C27.2441 25.2915 27.2441 23.7085 26.2678 22.7322L24.5 24.5L22.7322 26.2678ZM26.2678 4.26777C27.2441 3.29146 27.2441 1.70854 26.2678 0.732233C25.2915 -0.244078 23.7085 -0.244078 22.7322 0.732233L24.5 2.5L26.2678 4.26777ZM0.732233 22.7322C-0.244078 23.7085 -0.244078 25.2915 0.732233 26.2678C1.70854 27.2441 3.29146 27.2441 4.26777 26.2678L2.5 24.5L0.732233 22.7322ZM2.5 2.5L0.732233 4.26777L11.7322 15.2678L13.5 13.5L15.2678 11.7322L4.26777 0.732233L2.5 2.5ZM13.5 13.5L11.7322 15.2678L22.7322 26.2678L24.5 24.5L26.2678 22.7322L15.2678 11.7322L13.5 13.5ZM13.5 13.5L15.2678 15.2678L26.2678 4.26777L24.5 2.5L22.7322 0.732233L11.7322 11.7322L13.5 13.5ZM24.5 2.5L22.7322 0.732233L0.732233 22.7322L2.5 24.5L4.26777 26.2678L26.2678 4.26777L24.5 2.5Z" fill="#404040" fill-opacity="0.6"/>
</svg>
