<svg xmlns="http://www.w3.org/2000/svg" width="69" height="63" viewBox="0 0 69 63" fill="none">
<g clip-path="url(#clip0_229_52)">
<path d="M63.7103 35.5561C63.4415 34.7926 62.9599 34.082 62.4944 33.3952C61.7371 32.2779 61.0221 31.2223 61.1474 29.9624C61.2478 28.9554 61.8966 28.0959 62.5243 27.2644C63.1801 26.3956 63.8585 25.4971 63.9078 24.4305C63.9838 22.7958 62.7043 21.7158 61.3497 20.5722C60.519 19.8712 59.6602 19.1461 59.1212 18.2734C58.0572 16.5505 58.3398 14.445 58.6133 12.4089C58.6845 11.8792 58.7579 11.3313 58.8054 10.8033C58.8755 10.0247 58.8317 9.25307 58.675 8.51056C58.6732 8.5017 58.6663 8.49461 58.6572 8.49213C58.5827 8.47191 58.5078 8.45206 58.433 8.43185C57.8535 8.27689 57.2543 8.11697 56.7132 7.856C54.9791 7.01846 53.9984 5.26857 53.0497 3.57612C52.4166 2.4464 51.7619 1.27803 50.8892 0.393691C50.8848 0.389436 50.8786 0.386599 50.8724 0.386244C50.4427 0.362487 50.0012 0.400073 49.5225 0.502549C48.2259 0.779837 47.0724 1.44682 45.9566 2.09217C45.0178 2.63504 44.0473 3.19635 42.9957 3.52293C40.9064 4.17147 38.5403 3.89773 36.6668 2.79141C36.1552 2.48895 35.6495 2.11628 35.1602 1.75566C33.8855 0.81565 32.5663 -0.155921 31.009 0.0210186C29.521 0.190157 28.4771 1.33796 27.4675 2.44817C27.1129 2.83787 26.7463 3.24139 26.367 3.5942C24.9291 4.93171 22.9624 5.74442 20.9713 5.82385C20.2805 5.8508 19.5429 5.80506 18.8291 5.76073C18.4877 5.73946 18.1342 5.71747 17.7903 5.70329C17.783 5.704 17.7778 5.70506 17.7727 5.70932C17.152 6.22241 16.4579 6.60607 15.7093 6.85074C15.506 6.9174 15.2752 6.99328 15.1821 7.1876C15.0944 7.37021 15.1689 7.57942 15.2347 7.7638L15.2474 7.79926C15.7502 9.23818 15.0243 11.0657 13.5583 12.0501C12.0726 13.0472 10.2531 13.1191 8.98826 13.0057C8.9857 13.005 8.98241 13.0057 8.97949 13.0064C8.89113 13.0287 8.79729 13.05 8.69322 13.0727C8.68263 13.0748 8.67497 13.0837 8.67351 13.094C8.60523 13.7429 8.27186 14.4184 7.70954 15.0477C6.44836 16.4583 4.36525 17.2075 2.40264 16.9565C2.39314 16.9547 2.38292 16.96 2.37781 16.9682C2.16895 17.31 2.01304 17.6639 1.91408 18.0213C1.91262 18.0266 1.91299 18.0323 1.91518 18.0373C2.04553 18.3369 2.19926 18.6468 2.37233 18.9574C2.54979 19.2751 2.74112 19.5978 2.92588 19.9099C3.72407 21.2555 4.54965 22.6469 4.58433 24.1897C4.61245 25.4577 4.09724 26.7055 3.59956 27.9122C2.94523 29.4976 2.32742 30.995 2.82182 32.546C3.16833 33.6335 4.02093 34.4809 4.84541 35.3011C5.70531 36.1564 6.59478 37.0407 6.89054 38.1892C7.07165 38.8945 7.01359 39.6547 6.95736 40.3894C6.88397 41.3493 6.80802 42.3422 7.27978 43.1914C7.84282 44.2052 8.98205 44.6732 10.0837 45.126C11.0411 45.5193 12.0313 45.9263 12.6707 46.6887C13.3684 47.5206 13.5558 48.6599 13.7365 49.7612C13.9589 51.114 14.1688 52.3915 15.242 53.1521C16.5784 54.1003 18.1616 53.5539 19.8376 52.9748C21.1758 52.5125 22.5597 52.0348 23.8537 52.343C25.296 52.6873 26.3184 53.929 27.3072 55.1304C28.4377 56.5037 29.5082 57.8036 31.1335 57.8036C31.2021 57.8036 31.2722 57.8015 31.3431 57.7965C32.3724 57.7274 33.2286 57.1054 34.0571 56.5041C34.8009 55.964 35.5699 55.4055 36.4681 55.2389C37.7414 55.0024 39.0347 55.574 40.2856 56.1264C41.7988 56.7948 43.2275 57.426 44.5844 56.7044C45.5224 56.2051 45.9792 55.2229 46.4214 54.273C46.7865 53.4879 47.1645 52.6763 47.8122 52.116C48.9492 51.1338 50.6135 51.1303 52.2227 51.1267C53.9527 51.1228 55.7415 51.1193 56.7884 49.8538C57.5592 48.9215 57.5796 47.6681 57.5997 46.4561C57.6183 45.3154 57.6377 44.1357 58.2759 43.2137C58.82 42.429 59.7135 41.9787 60.5778 41.5433C61.1331 41.2635 61.7071 40.9745 62.1953 40.5965C63.6939 39.4363 64.3307 37.3159 63.7096 35.555L63.7103 35.5561Z" fill="#E8B47C"/>
<path d="M67.9159 29.7389C68.6155 28.0883 69.2764 26.5296 68.8814 24.868C68.5232 23.3624 67.3602 22.2369 66.2352 21.1483C65.376 20.3172 64.488 19.4577 63.9389 18.4226C63.3159 17.2479 63.1122 15.8373 62.9154 14.4729C62.6112 12.3677 62.3242 10.3791 60.611 9.2636C60.0206 8.87852 59.3498 8.67889 58.6571 8.49202C58.6488 8.48989 58.6396 8.49202 58.6334 8.49769C58.6272 8.50372 58.6243 8.51223 58.6261 8.52039C58.7817 9.25828 58.8251 10.0253 58.7554 10.7993C58.7083 11.3262 58.6345 11.8734 58.5637 12.4028C58.2891 14.447 58.0054 16.5614 59.0782 18.2989C59.6211 19.1779 60.4832 19.9055 61.3168 20.6094C62.662 21.7447 63.933 22.8174 63.8578 24.4286C63.8092 25.4807 63.1356 26.3732 62.4842 27.2359C61.8525 28.0724 61.1992 28.9376 61.0977 29.9581C60.9707 31.2349 61.6903 32.2973 62.4528 33.4224C62.9165 34.1067 63.3959 34.8145 63.6628 35.5719C64.2773 37.3144 63.6475 39.4121 62.1647 40.5599C61.6801 40.9347 61.1083 41.223 60.5555 41.5013C59.6857 41.9396 58.7864 42.3928 58.2351 43.1877C57.5884 44.1217 57.569 45.3085 57.5501 46.4563C57.5303 47.6605 57.5099 48.9055 56.7497 49.8246C55.7178 51.0717 54.0206 51.0756 52.2231 51.0795C50.6044 51.083 48.9306 51.0865 47.7793 52.0808C47.1232 52.6478 46.7434 53.4644 46.3758 54.2541C45.9171 55.2398 45.4841 56.1713 44.5607 56.6628C43.2264 57.3727 41.8083 56.7465 40.3072 56.083C39.0489 55.5271 37.7479 54.9523 36.4594 55.1916C35.5502 55.3608 34.7764 55.9224 34.0279 56.466C33.2056 57.0631 32.3548 57.6808 31.3405 57.7485C31.2711 57.7532 31.2028 57.7556 31.1357 57.7556C29.5334 57.7556 28.4701 56.4642 27.3474 55.1005C26.3534 53.8931 25.3252 52.6446 23.8665 52.2964C22.5578 51.9844 21.167 52.4648 19.8215 52.9293C18.1579 53.5034 16.5871 54.0459 15.2723 53.1134C14.2156 52.3645 14.0071 51.0965 13.7865 49.7537C13.6047 48.6459 13.4163 47.5002 12.7101 46.6581C12.0627 45.8862 11.0666 45.477 10.1037 45.0812C8.9594 44.6111 7.87859 44.1671 7.32432 43.1682C6.8595 42.3314 6.93179 41.3896 7.00774 40.3929C7.06434 39.6543 7.12276 38.8901 6.93946 38.1771C6.64041 37.0154 5.74619 36.1265 4.88155 35.2666C4.06108 34.4507 3.21287 33.6075 2.87001 32.5313C2.38109 30.997 2.99561 29.5074 3.64665 27.9302C4.14653 26.7186 4.6632 25.4665 4.63508 24.1882C4.60003 22.633 3.77116 21.2359 2.97005 19.8849C2.78529 19.5732 2.59396 19.2509 2.41687 18.9336C2.24453 18.624 2.09153 18.3159 1.96191 18.0177C1.95789 18.0085 1.94621 18.0035 1.93708 18.0028C1.92649 18.0035 1.91736 18.0109 1.91444 18.0209C1.82717 18.334 1.78153 18.6623 1.77861 18.9963C1.77277 19.6842 1.97031 20.3576 2.16127 21.009C2.28688 21.4377 2.41687 21.8809 2.48807 22.3249C2.7988 24.2602 2.02252 26.1835 1.27216 28.0436C0.469958 30.0318 -0.359634 32.0874 0.162878 34.138C0.417378 35.1351 0.978229 36.0343 1.52119 36.9044C2.05575 37.7615 2.60857 38.648 2.86562 39.6256C3.13108 40.6354 3.08288 41.7357 3.03651 42.7998C2.96604 44.4139 2.89922 45.9386 3.82594 47.1886C4.42403 47.9945 5.33797 48.4977 6.22233 48.9846C6.99861 49.4118 7.80119 49.8536 8.39271 50.4997C9.09961 51.272 9.46475 52.289 9.81747 53.2726C10.2111 54.3693 10.6179 55.5033 11.5015 56.2894C13.1136 57.7244 15.4406 57.8258 17.9045 57.9333C20.1739 58.0322 22.5202 58.1347 24.3572 59.3382C24.9181 59.7055 25.4607 60.1278 25.9854 60.5367C27.1531 61.4462 28.3606 62.3866 29.8686 62.7979C30.3915 62.9401 30.8881 63.0004 31.3682 63C32.6057 63 33.7318 62.6018 34.905 62.1866C35.782 61.8763 36.6894 61.5554 37.6639 61.4058C38.7893 61.2334 39.9807 61.3522 41.1335 61.4671C42.9365 61.6469 44.6403 61.8171 46.1428 60.981C46.9757 60.5179 47.611 59.7917 48.2255 59.0896C48.751 58.4893 49.2943 57.8684 49.9599 57.4117C51.1054 56.6256 52.5418 56.3646 53.9312 56.1121C55.4118 55.8433 56.9428 55.565 58.1157 54.6487C59.3794 53.6626 59.9695 52.1457 60.5405 50.6788C60.9374 49.6593 61.3475 48.6048 61.9817 47.7165C62.6072 46.8407 63.4631 46.1106 64.2909 45.4046C65.4221 44.4398 66.5919 43.442 67.1521 42.0743C67.8155 40.4556 67.4865 38.6863 67.1685 36.975C66.9264 35.6726 66.6763 34.3262 66.849 33.0284C66.998 31.9051 67.465 30.8038 67.9167 29.7386L67.9159 29.7389Z" fill="#CD7640"/>
<path d="M15.5852 25.4754C15.0714 25.1875 13.7576 24.5794 12.6491 25.1503C11.8976 25.5378 11.4116 26.3754 11.2057 27.6398C11.1703 27.8565 11.1411 28.0799 11.1129 28.2954C11.0151 29.045 10.9139 29.8205 10.5353 30.4818C10.3334 30.8347 10.0519 31.157 9.77947 31.4687C9.32524 31.9892 8.85531 32.5267 8.76512 33.2068C8.65704 34.0242 9.04737 34.7465 9.42528 35.445C9.79042 36.1201 10.1676 36.818 10.1158 37.6169C10.1048 37.7842 10.0818 37.9761 10.0573 38.1792C9.96423 38.9547 9.8587 39.8341 10.2972 40.1578C10.4086 40.2401 10.5477 40.2812 10.7164 40.2812C10.911 40.2812 11.1451 40.2263 11.4215 40.1171C12.331 39.7564 12.9748 38.9987 13.597 38.2658C13.8968 37.9129 14.2064 37.5477 14.5394 37.2371C14.5485 37.2286 14.5496 37.2151 14.5423 37.2052C13.7646 36.1829 13.3009 34.9805 13.3315 34.0671C13.368 32.9771 13.9146 31.8679 14.8315 31.0233C15.6257 30.2921 16.6765 29.7503 17.9542 29.4138C18.3481 29.3099 18.7545 29.2521 19.1295 29.2465C19.1387 29.2465 19.1467 29.2415 19.1511 29.234C19.1555 29.2266 19.1555 29.2174 19.1507 29.2096C18.0378 27.4019 16.9048 26.2154 15.5852 25.4754Z" fill="#AF7032"/>
<path d="M49.9876 15.8544C47.1253 14.9038 44.1356 16.5519 42.5691 18.4848C41.6888 19.5712 41.1762 20.7318 41.0867 21.8406C40.9801 23.1604 41.5019 24.4298 42.4479 25.1532C43.0869 25.6414 43.7047 25.8425 44.2973 25.8425C45.9752 25.8425 47.4485 24.2305 48.6056 22.9639C48.7969 22.7547 48.9777 22.5569 49.1511 22.375C50.1268 21.352 51.3412 20.0787 51.584 18.5032C51.7136 17.6653 51.499 16.8863 51.0108 16.419C50.7654 16.1842 50.4401 16.0044 49.9873 15.8541L49.9876 15.8544Z" fill="#AF7032"/>
<path d="M27.0472 17.1764H27.0249C26.0708 17.1764 25.1226 17.4076 24.2813 17.8455C23.8354 18.0777 23.5313 18.3164 23.3243 18.5976C23.1307 18.86 23.0175 19.1692 22.908 19.4684C22.8656 19.5844 22.8215 19.7042 22.774 19.8195C22.6155 20.2007 22.3983 20.5634 22.1887 20.9141C22.0349 21.1708 21.8761 21.4364 21.7406 21.708C21.35 22.492 21.2525 23.2136 21.4588 23.7951C21.7217 24.5355 22.1229 24.9514 22.6513 25.0312C22.7148 25.0408 22.7795 25.0458 22.8456 25.0458C24.6135 25.0458 27.2002 21.685 28.071 20.5531C28.1404 20.4631 28.1996 20.3861 28.2478 20.3248C28.5118 19.9876 28.7984 19.5794 28.9233 19.1046C29.0543 18.6047 28.9674 18.1043 28.6903 17.7654C28.373 17.3774 27.8206 17.1789 27.0483 17.176L27.0472 17.1764Z" fill="#AF7032"/>
<path d="M35.3281 36.7152C34.3306 36.2348 32.5312 36.9599 31.6289 37.6017C31.2039 37.9038 30.9103 38.3396 30.646 38.7598C30.4864 39.0137 30.3364 39.2647 30.2575 39.5441C30.0256 40.3671 30.4554 41.205 30.9151 41.9926C31.2269 42.5269 31.6651 43.1368 32.3001 43.1368C32.3096 43.1368 32.3194 43.1368 32.3289 43.1365C32.8704 43.1205 33.2293 42.6571 33.3582 42.4585C33.4842 42.2645 33.5824 42.0525 33.677 41.8468C33.7529 41.6823 33.8314 41.5117 33.9238 41.3529C34.1601 40.9462 34.496 40.5962 34.821 40.2579C34.9517 40.1218 35.0868 39.9813 35.2139 39.8388C35.7806 39.2027 36.0511 38.6226 36.0413 38.0651C36.0296 37.3921 35.7897 36.9379 35.3278 36.7156L35.3281 36.7152Z" fill="#AF7032"/>
<path d="M60.1509 33.594C59.3403 31.663 57.4438 30.2191 55.3194 29.9152C54.2686 29.7656 53.0453 30.0269 52.6839 30.9509C52.5363 31.3282 52.571 31.7392 52.6046 32.137C52.6207 32.3275 52.6375 32.5242 52.6338 32.715C52.6243 33.2231 52.4688 33.7231 52.3184 34.2068C52.169 34.6865 52.0149 35.183 52.0011 35.6904C51.9711 36.7921 52.666 37.9289 53.73 38.5193C54.3277 38.8512 55.1522 39.0643 55.9507 39.0643C56.5357 39.0643 57.1064 38.9497 57.5636 38.6838C58.2007 38.3125 58.7167 37.5516 59.1716 36.8804C59.3538 36.6116 59.5258 36.3581 59.6967 36.14C59.9705 35.79 60.2813 35.3936 60.3707 34.9262C60.443 34.5472 60.3733 34.1242 60.1509 33.5944V33.594Z" fill="#AF7032"/>
<path d="M53.5861 15.5803C53.7373 15.6193 53.884 15.6385 54.0246 15.6385C54.4756 15.6385 54.8663 15.441 55.1518 15.0609C55.3946 14.7382 55.5133 14.3106 55.6279 13.8975C55.6842 13.6957 55.7371 13.5053 55.8028 13.3291C56.1895 12.2976 56.2731 11.5855 55.6561 10.5551C55.3355 10.0197 54.878 9.36831 54.1805 9.08499C53.8012 8.9311 53.3305 8.93004 52.9522 9.08357C52.6499 9.20626 52.4319 9.41015 52.3224 9.67396C52.1993 9.97004 52.2256 10.2959 52.2508 10.6104C52.261 10.7374 52.2716 10.8682 52.2723 10.9952C52.2742 11.4175 52.1628 11.8398 52.0551 12.2479C51.9265 12.7341 51.794 13.2372 51.8521 13.7421C51.943 14.5325 52.7207 15.3569 53.5857 15.58L53.5861 15.5803Z" fill="#AF7032"/>
<path d="M50.4795 39.7672C49.5634 39.319 48.622 39.1222 47.7567 39.1999C46.769 39.2878 45.8627 39.7555 45.3322 40.4516C44.343 41.7494 44.6716 43.523 45.0572 45.0839C45.1835 45.5945 45.3406 46.23 45.7429 46.6916C46.1837 47.1973 46.9829 47.3753 47.8228 47.3753C48.752 47.3753 49.7317 47.1572 50.3313 46.9239C51.2496 46.5661 52.4505 45.8974 52.9588 44.7407C53.352 43.8464 53.2717 42.7472 52.7441 41.8008C52.1577 40.7487 51.1886 40.114 50.4791 39.7669L50.4795 39.7672Z" fill="#975D48"/>
<path d="M11.1513 22.618C11.3339 22.6726 11.5343 22.6971 11.7487 22.6971C13.0044 22.6971 14.7275 21.8524 16.0368 21.2106C16.544 20.9621 16.9822 20.7476 17.3353 20.6061C18.8878 19.9845 20.4503 19.2572 21.0086 17.8197C21.6194 16.2461 20.6668 14.5437 19.5232 13.6278C18.6238 12.9076 17.191 12.3137 15.8685 12.8051C14.8323 13.1902 14.1363 14.1487 13.5769 14.9188L10.8592 18.6608C10.268 19.4746 9.70683 20.3465 9.89487 21.2677C10.0219 21.8897 10.5269 22.4326 11.1513 22.6184V22.618Z" fill="#975D48"/>
<path d="M20.8566 34.3918C21.1575 33.3192 21.4682 32.2104 21.3886 31.1055C21.3554 30.6431 21.2477 30.2821 21.06 30.0023C20.6014 29.3194 19.7565 29.1886 19.1288 29.1974C18.7494 29.2035 18.339 29.2616 17.941 29.3666C16.655 29.7056 15.5972 30.2509 14.7968 30.9877C13.8704 31.8409 13.318 32.9628 13.2811 34.0656C13.2501 34.9893 13.7178 36.2034 14.5018 37.2342C15.3653 38.3692 16.4443 39.0904 17.4634 39.2131C17.57 39.2259 17.6759 39.2323 17.7807 39.2323C18.3697 39.2323 18.9229 39.0287 19.4289 38.6252C20.1373 38.06 20.2399 37.3732 20.3589 36.5775C20.3801 36.4363 20.4017 36.2903 20.4276 36.1427C20.5291 35.5623 20.696 34.9673 20.857 34.3921L20.8566 34.3918Z" fill="#975D48"/>
<path d="M58.3737 22.1703C57.8206 21.7037 57.0355 21.6583 56.4119 21.6675C53.7467 21.7136 51.2167 22.7926 49.644 24.5542C49.0072 25.2673 48.5037 26.3186 48.9996 27.131C49.3271 27.6675 49.7273 27.8122 50.1644 27.8122C50.4148 27.8122 50.6774 27.7647 50.945 27.7164C51.1553 27.6785 51.3726 27.6391 51.5851 27.6246C52.6243 27.5533 53.7098 27.6175 54.7596 27.6796C55.2058 27.7061 55.667 27.7331 56.1139 27.7491C56.5119 27.7632 56.9241 27.7778 57.317 27.6696C57.9659 27.4906 58.5355 26.9615 58.8411 26.2534C59.0828 25.6932 59.1767 25.0354 59.1369 24.183C59.0912 23.2107 58.8488 22.5714 58.3741 22.1707L58.3737 22.1703Z" fill="#975D48"/>
<path d="M40.3565 16.2503C40.5434 16.2957 40.7431 16.3187 40.9557 16.3187C42.3012 16.3187 44.1605 15.4099 46.4966 13.6093C47.0896 13.1522 47.7264 12.5828 47.9528 11.8247C48.15 11.1655 48.0159 10.3999 47.5858 9.7248C47.2375 9.17873 46.7088 8.69117 45.9686 8.23411C45.1226 7.71145 44.3587 7.4565 43.6336 7.45508H43.6281C42.5312 7.45508 41.3953 8.07277 40.5883 9.10817C39.8661 10.0351 39.4695 11.1336 39.0946 12.2725C38.7984 13.1721 38.5406 14.121 38.916 14.9621C39.2275 15.6602 39.7124 16.0936 40.3565 16.2503Z" fill="#975D48"/>
<path d="M25.9904 39.4929C25.503 39.5641 25.0407 39.8031 24.6693 39.9957C23.6893 40.5027 22.7443 41.0176 21.9553 41.7332C21.0687 42.5374 20.5236 43.5068 20.4202 44.4624C20.3786 44.8454 20.4056 45.2383 20.4411 45.606C20.5108 46.3329 20.6309 47.0913 21.0344 47.7161C21.5463 48.5086 22.3347 48.9355 23.2738 48.9355C23.3567 48.9355 23.4403 48.932 23.5254 48.9256C24.7862 48.8267 26.0036 47.9813 26.4859 46.8694C27.0274 45.6216 28.3441 41.0041 27.3148 39.8815C27.0252 39.5652 26.5173 39.4166 25.9901 39.4932L25.9904 39.4929Z" fill="#975D48"/>
<path d="M36.2088 24.6048C35.8436 24.0456 35.1561 23.7917 34.5978 23.6329C33.3735 23.2846 32.1079 23.1577 30.8358 23.2542C29.6002 23.3485 28.7275 23.6814 28.1681 24.2715C27.6678 24.7991 27.4429 25.5193 27.2447 26.1547L26.5852 28.2673C26.1014 29.8179 26.3972 31.4671 27.3045 32.2777C27.6313 32.5695 28.1341 32.845 28.8677 32.845C29.277 32.845 29.7583 32.7592 30.3206 32.5426C32.1605 31.8338 34.2849 29.4977 35.6596 27.5479C36.1387 26.8685 36.8474 25.5824 36.2091 24.6044L36.2088 24.6048Z" fill="#975D48"/>
<path d="M39.9759 46.1945C39.9204 45.3956 39.8218 44.4811 39.3504 43.7369C38.9119 43.0447 38.0038 42.4689 37.1161 42.7078C35.0403 43.2663 33.6922 47.2675 33.4429 48.0643C33.3165 48.4678 33.2052 48.9018 33.2424 49.3386C33.3472 50.5574 34.5649 51.3758 35.6516 51.6201C35.9269 51.6818 36.2161 51.7126 36.5089 51.7126C37.9278 51.7126 39.4351 50.9946 39.8795 49.6429C40.0413 49.1507 40.0518 48.6192 40.0486 48.1171C40.0445 47.4799 40.0201 46.8331 39.9755 46.1949L39.9759 46.1945Z" fill="#975D48"/>
<path d="M46.6872 34.3221C46.9541 34.0043 47.0618 33.5427 47.0158 32.9104C46.9271 31.691 46.3794 30.7549 45.5502 30.406C44.9575 30.1564 44.2134 30.1939 43.2761 30.5205C41.2799 31.2162 39.5144 32.631 38.4318 34.4022C38.3197 34.5855 38.2087 34.783 38.1879 35.0043C38.1634 35.2674 38.2463 35.4794 38.4344 35.634C38.7166 35.8663 39.2183 35.9556 39.8274 35.9556C41.3423 35.9556 43.5204 35.4025 44.6333 35.1199C44.902 35.0518 45.1146 34.9979 45.2263 34.9752C45.8039 34.8593 46.3505 34.722 46.6868 34.3217L46.6872 34.3221Z" fill="#975D48"/>
<path d="M28.0494 14.4949C28.4043 14.6339 28.7647 14.702 29.1182 14.702C29.8718 14.702 30.5941 14.3924 31.1659 13.7995C32.4092 12.5099 33.9322 8.18038 33.712 6.56062C33.6397 6.02909 33.3158 5.5855 32.8871 5.43019C32.3818 5.24793 31.8326 5.45572 31.3134 5.68443C29.2661 6.58615 27.2008 7.62474 26.4063 9.51966C26.1631 10.0991 26.0397 10.7614 26.0284 11.5447C26.0098 12.8287 26.8218 14.0144 28.0491 14.4949H28.0494Z" fill="#975D48"/>
<path d="M10.5244 47.1843C10.3057 47.1085 10.0468 47.0329 9.78606 47.0475C9.50198 47.0638 9.25771 47.1914 9.13319 47.3889C8.89622 47.7641 9.1321 48.2375 9.32161 48.6179C9.37053 48.7162 9.43334 48.8842 9.506 49.0789C9.76634 49.7767 10.16 50.8316 10.7007 50.9033C10.7197 50.9061 10.7391 50.9072 10.7584 50.9072C10.9574 50.9072 11.1586 50.7706 11.3572 50.5001C11.8148 49.8771 11.9553 49.0945 11.7337 48.4073C11.5457 47.8244 11.1163 47.3904 10.5247 47.1847L10.5244 47.1843Z" fill="#975D48"/>
<path d="M63.5624 42.4926C62.4502 42.1047 61.1298 42.3784 60.2783 43.1752C59.6229 43.7879 59.2629 44.6942 59.3147 45.5998C59.3399 46.0356 59.544 46.7927 60.0041 47.0934C60.1308 47.176 60.2674 47.2171 60.4123 47.2171C60.5029 47.2171 60.5971 47.2008 60.6939 47.1685C61.0897 47.0363 61.4019 46.5143 61.6772 46.0537C61.8232 45.8094 61.9613 45.5786 62.0975 45.4279C62.2577 45.2502 62.4283 45.0754 62.5933 44.9066C63.0866 44.4017 63.5963 43.8797 63.891 43.2113C63.9469 43.0851 64.0031 42.9213 63.9436 42.777C63.8786 42.6199 63.7055 42.5422 63.562 42.4926H63.5624Z" fill="#975D48"/>
<path d="M35.8389 18.7225C35.7626 18.7998 35.7231 18.897 35.7275 18.9959C35.7381 19.2214 35.9203 19.3977 36.1423 19.3977C36.2537 19.3977 36.3643 19.3501 36.4461 19.2672C36.5224 19.1899 36.5618 19.0927 36.5575 18.9938C36.5469 18.7683 36.3647 18.592 36.1423 18.592C36.0309 18.592 35.9203 18.6396 35.8389 18.7225Z" fill="#975D48"/>
<path d="M35.858 12.9618C36.1607 12.9618 36.2987 12.7324 36.2987 12.5193C36.2987 12.3062 36.1607 12.0771 35.858 12.0771C35.7221 12.0771 35.6078 12.1254 35.5271 12.2161C35.4563 12.2966 35.4172 12.4041 35.4172 12.5197C35.4172 12.7328 35.5553 12.9618 35.858 12.9618Z" fill="#975D48"/>
<path d="M20.6481 9.72923C20.7529 9.72923 20.8573 9.6842 20.9343 9.60619C21.0063 9.53314 21.0435 9.44166 21.0395 9.34805C21.0296 9.13565 20.8577 8.96899 20.6481 8.96899C20.5433 8.96899 20.4388 9.01403 20.3618 9.09204C20.2899 9.16508 20.2526 9.25657 20.2566 9.35018C20.2665 9.56257 20.4385 9.72923 20.6481 9.72923Z" fill="#975D48"/>
<path d="M23.0263 13.3907C23.0303 13.3907 23.0343 13.3907 23.038 13.3907C23.1362 13.3864 23.2384 13.3386 23.3038 13.2655C23.3582 13.2049 23.3834 13.1333 23.3761 13.0588L23.3724 13.0201C23.3571 12.8609 23.2395 12.696 23.05 12.696C23.0453 12.696 23.0405 12.696 23.0354 12.6964C22.8503 12.7046 22.7192 12.8319 22.701 13.0201L22.6973 13.0588C22.69 13.1364 22.7225 13.2184 22.7868 13.2836C22.8532 13.3513 22.9419 13.3907 23.0263 13.3907Z" fill="#975D48"/>
<path d="M7.69347 16.0264L7.65768 16.0125C7.55508 15.9728 7.44262 15.987 7.34147 16.053C7.22427 16.1299 7.14868 16.2607 7.14868 16.3863C7.14868 16.5118 7.22427 16.643 7.34147 16.7196C7.40501 16.7614 7.47292 16.7823 7.54047 16.7823C7.58027 16.7823 7.62007 16.7749 7.65805 16.76L7.69383 16.7458C7.8764 16.6749 7.98119 16.5398 7.97389 16.3849C7.96622 16.2189 7.86946 16.0948 7.69383 16.026L7.69347 16.0264Z" fill="#975D48"/>
<path d="M7.43493 24.4379C7.31042 24.4684 7.18445 24.573 7.18445 24.7378C7.18445 24.8353 7.23155 24.9261 7.31334 24.9868C7.37176 25.03 7.44077 25.0524 7.51052 25.0524C7.53863 25.0524 7.56675 25.0488 7.5945 25.0414C7.68834 25.0165 7.76429 24.952 7.80263 24.8648C7.84316 24.7726 7.83804 24.6687 7.78875 24.5797C7.72084 24.4574 7.58172 24.4024 7.43457 24.4379H7.43493Z" fill="#975D48"/>
<path d="M24.8688 35.858C24.9827 35.858 25.0787 35.8176 25.1467 35.741C25.2062 35.6736 25.239 35.5832 25.239 35.4864C25.239 35.3077 25.1233 35.1155 24.8692 35.1155C24.7552 35.1155 24.6592 35.1559 24.5913 35.2325C24.5318 35.2999 24.4989 35.3903 24.4989 35.4871C24.4989 35.6658 24.6147 35.858 24.8688 35.858Z" fill="#975D48"/>
<path d="M16.9055 44.4973C16.6148 44.4973 16.4823 44.7175 16.4823 44.9221C16.4823 45.1267 16.6148 45.3462 16.9055 45.3462C17.1961 45.3462 17.3287 45.126 17.3287 44.9214C17.3287 44.8108 17.2911 44.7076 17.2232 44.6306C17.1461 44.5434 17.0362 44.4973 16.9055 44.4973Z" fill="#975D48"/>
<path d="M10.9314 42.6019C10.9314 42.6852 10.9599 42.7632 11.0114 42.8214C11.0698 42.8874 11.1527 42.9225 11.2516 42.9225C11.4616 42.9225 11.5715 42.7611 11.5715 42.6016C11.5715 42.442 11.4616 42.281 11.2516 42.281C11.0417 42.281 10.9318 42.4423 10.9318 42.6023L10.9314 42.6019Z" fill="#975D48"/>
<path d="M29.1025 51.4458C29.0978 51.4458 29.0927 51.4458 29.0879 51.4462C28.9178 51.4536 28.7787 51.5451 28.7158 51.6901C28.6384 51.8681 28.7016 52.0575 28.8809 52.1841L28.8973 52.1958C28.9477 52.2312 29.0185 52.2489 29.0894 52.2489C29.1602 52.2489 29.2311 52.2312 29.2814 52.1958L29.2979 52.1844C29.4629 52.0674 29.5308 51.905 29.4834 51.7376C29.4363 51.5717 29.2709 51.4462 29.1029 51.4462L29.1025 51.4458Z" fill="#975D48"/>
<path d="M30.2041 46.6145C30.1165 46.6145 30.0292 46.6521 29.9646 46.7173C29.9043 46.7787 29.8733 46.8553 29.8766 46.9336C29.885 47.1113 30.0285 47.2503 30.2037 47.2503C30.2914 47.2503 30.379 47.2127 30.4433 47.1474C30.5035 47.0861 30.5346 47.0095 30.5309 46.9312C30.5229 46.7535 30.379 46.6145 30.2037 46.6145H30.2041Z" fill="#975D48"/>
<path d="M41.3528 39.3394C41.2298 39.3394 41.1261 39.383 41.0531 39.4656C40.9888 39.5383 40.9534 39.6358 40.9534 39.7404C40.9534 39.9333 41.0782 40.1411 41.3528 40.1411C41.6274 40.1411 41.7523 39.9393 41.7523 39.74C41.7523 39.5408 41.6274 39.3394 41.3528 39.3394Z" fill="#975D48"/>
<path d="M43.0248 46.1858C42.84 46.1858 42.7433 46.3276 42.7433 46.4684C42.7433 46.6092 42.84 46.7506 43.0248 46.7506C43.2096 46.7506 43.3063 46.6085 43.3063 46.468C43.3063 46.3276 43.2096 46.1861 43.0248 46.1861V46.1858Z" fill="#975D48"/>
<path d="M54.5716 47.2747C54.4632 47.2747 54.3715 47.313 54.3072 47.386C54.2506 47.4502 54.2192 47.5363 54.2192 47.6282C54.2192 47.8037 54.3401 47.9814 54.5716 47.9814C54.8031 47.9814 54.924 47.8033 54.924 47.6278C54.924 47.4523 54.8137 47.2747 54.5716 47.2747Z" fill="#975D48"/>
<path d="M55.5275 41.6562C55.3135 41.6562 55.2018 41.8208 55.2018 41.9832C55.2018 42.1456 55.3139 42.3098 55.5275 42.3098C55.7411 42.3098 55.8532 42.1452 55.8532 41.9828C55.8532 41.8981 55.8243 41.8186 55.7721 41.7594C55.7126 41.6921 55.6279 41.6566 55.5275 41.6566V41.6562Z" fill="#975D48"/>
<path d="M49.7295 30.6304C49.7419 30.6319 49.754 30.6326 49.766 30.6326C49.8591 30.6326 49.9384 30.5918 49.9866 30.5173L50.0092 30.4851C50.0592 30.4198 50.072 30.339 50.0457 30.2578C50.0132 30.1585 49.9252 30.0705 49.8259 30.0386L49.8044 30.0319C49.6996 29.9986 49.5316 30.0486 49.4801 30.1613L49.4717 30.1801C49.4239 30.2847 49.425 30.3897 49.475 30.4762C49.5243 30.5613 49.6148 30.6166 49.7295 30.6308V30.6304Z" fill="#975D48"/>
<path d="M39.9989 27.2964C39.882 27.2964 39.7838 27.3375 39.7144 27.4162C39.6535 27.485 39.6199 27.5776 39.6199 27.6769C39.6199 27.8598 39.7385 28.0566 39.9989 28.0566C40.2592 28.0566 40.3779 27.8655 40.3779 27.6765C40.3779 27.5776 40.3443 27.4854 40.2833 27.4162C40.2143 27.3379 40.1157 27.2967 39.9989 27.2967V27.2964Z" fill="#975D48"/>
<path d="M37.5302 31.7032C37.643 31.7032 37.7413 31.6507 37.799 31.5596C37.861 31.4621 37.8654 31.3359 37.811 31.2305L37.7957 31.2008C37.7486 31.11 37.6467 31.054 37.5302 31.054C37.4137 31.054 37.3122 31.1103 37.2651 31.2008L37.2498 31.2305C37.1954 31.3359 37.1998 31.4617 37.2618 31.5596C37.3195 31.6507 37.4177 31.7029 37.5306 31.7029L37.5302 31.7032Z" fill="#975D48"/>
<path d="M55.3679 19.1279C55.4632 19.1279 55.5577 19.0872 55.6275 19.0162C55.6925 18.9499 55.7264 18.867 55.7224 18.7822C55.7137 18.5897 55.5577 18.439 55.3675 18.439C55.2722 18.439 55.1776 18.4797 55.1079 18.5507C55.0425 18.617 55.0089 18.6999 55.0126 18.7847C55.0214 18.9772 55.1773 19.1279 55.3671 19.1279H55.3679Z" fill="#975D48"/>
<path d="M60.8176 23.7127L60.8537 23.7262C60.884 23.7375 60.9158 23.7432 60.9476 23.7432C61.0042 23.7432 61.0615 23.7254 61.1134 23.691C61.2065 23.6293 61.2663 23.524 61.2663 23.4233C61.2663 23.3226 61.2065 23.2177 61.1134 23.1556C61.0323 23.1017 60.9377 23.089 60.8534 23.1205L60.8172 23.134C60.6829 23.1843 60.5992 23.2953 60.5992 23.4233C60.5992 23.5513 60.6829 23.6623 60.8172 23.7127H60.8176Z" fill="#975D48"/>
<path d="M49.4597 5.64897C49.5126 5.71173 49.5988 5.74931 49.6963 5.7518C49.7 5.7518 49.704 5.7518 49.7076 5.7518C49.8106 5.7518 49.907 5.71421 49.968 5.64967C50.0384 5.57521 50.0775 5.46493 50.0698 5.3621C50.0636 5.27771 50.0275 5.20679 49.9654 5.15715L49.907 5.1107C49.7708 5.00255 49.5513 4.96638 49.413 5.11283C49.283 5.25041 49.2826 5.43799 49.4119 5.59152L49.4597 5.64826V5.64897Z" fill="#975D48"/>
<path d="M49.7937 8.47388C49.6805 8.47388 49.5746 8.53877 49.5111 8.64763C49.4526 8.74691 49.4537 8.86641 49.514 8.96711C49.5731 9.06639 49.6779 9.12561 49.7941 9.12561C49.9102 9.12561 50.0146 9.06639 50.0737 8.96711C50.134 8.86641 50.1351 8.74691 50.0767 8.64763C50.0128 8.53912 49.9072 8.47388 49.7941 8.47388H49.7937Z" fill="#975D48"/>
<path d="M37.6573 7.79157C37.6836 7.79157 37.7103 7.78838 37.7365 7.78129C37.8636 7.7476 37.9509 7.64123 37.964 7.50329C37.9815 7.32245 37.9056 7.17707 37.7555 7.10402C37.7059 7.05084 37.6252 7.02921 37.5441 7.04623C37.462 7.0636 37.3977 7.11714 37.3747 7.18629C37.271 7.32458 37.2779 7.49478 37.3951 7.65293C37.4612 7.74228 37.5569 7.79157 37.6573 7.79157Z" fill="#975D48"/>
<path d="M32.0357 2.74233C32.1631 2.74233 32.2737 2.68241 32.3391 2.57851C32.4081 2.46859 32.4125 2.32817 32.3504 2.21187L32.3347 2.18208C32.2803 2.07996 32.1657 2.01685 32.0357 2.01685C31.9057 2.01685 31.791 2.08032 31.7366 2.18208L31.7209 2.21187C31.6588 2.32817 31.6632 2.46859 31.7322 2.57851C31.7976 2.68276 31.9082 2.74233 32.0357 2.74233Z" fill="#975D48"/>
<path d="M50.2834 53.4995C50.164 53.4995 50.0632 53.5421 49.9924 53.6222C49.93 53.6928 49.8956 53.7874 49.8956 53.8888C49.8956 54.0761 50.0169 54.2775 50.2834 54.2775C50.55 54.2775 50.6712 54.0817 50.6712 53.8881C50.6712 53.6945 50.55 53.4995 50.2834 53.4995Z" fill="#975D48"/>
<path d="M47.987 55.9583C47.8519 55.9583 47.7383 56.0061 47.6584 56.0965C47.5879 56.1763 47.5492 56.2834 47.5492 56.3979C47.5492 56.6093 47.6861 56.8369 47.987 56.8369C48.2879 56.8369 48.4248 56.6089 48.4248 56.3976C48.4248 56.1863 48.2879 55.9586 47.987 55.9586V55.9583Z" fill="#975D48"/>
<path d="M37.2695 57.613C37.1432 57.613 37.0179 57.6673 36.9252 57.7613C36.8387 57.8492 36.7937 57.9595 36.7989 58.0715C36.8105 58.3272 37.0172 58.5275 37.2695 58.5275C37.3959 58.5275 37.5215 58.4736 37.6142 58.3793C37.7007 58.2914 37.7457 58.1811 37.7405 58.069C37.7289 57.8134 37.5218 57.613 37.2699 57.613H37.2695Z" fill="#975D48"/>
<path d="M32.8934 60.3101C32.7466 60.2342 32.6097 60.2321 32.4742 60.303C32.3723 60.3562 32.2956 60.4498 32.2635 60.5605C32.2314 60.6714 32.246 60.7863 32.3044 60.8835C32.3727 60.9962 32.4979 61.0728 32.6392 61.0874C32.6553 61.0891 32.6714 61.0899 32.6871 61.0899C32.8017 61.0899 32.9073 61.0466 32.9821 60.9675C33.0767 60.8675 33.1205 60.7218 33.0968 60.587C33.0752 60.4651 33.0029 60.3668 32.893 60.3105L32.8934 60.3101Z" fill="#975D48"/>
<path d="M23.5798 54.6995C23.544 54.6761 23.5042 54.6612 23.4659 54.6463L23.4385 54.636C23.3377 54.5963 23.2274 54.6101 23.1281 54.675C23.012 54.7509 22.9371 54.8799 22.9371 55.0041C22.9371 55.1282 23.012 55.2569 23.1277 55.3328C23.1898 55.3732 23.2563 55.3941 23.322 55.3941C23.3614 55.3941 23.4005 55.3867 23.4381 55.3718L23.4659 55.3611C23.5042 55.3466 23.544 55.3313 23.5794 55.3083C23.6904 55.2363 23.7539 55.1253 23.7539 55.0041C23.7539 54.8828 23.6904 54.7718 23.5794 54.6998L23.5798 54.6995Z" fill="#975D48"/>
<path d="M18.8973 55.8555C18.7877 55.8555 18.6953 55.8945 18.6304 55.9679C18.5734 56.0324 18.5416 56.1193 18.5416 56.2122C18.5416 56.3838 18.653 56.5682 18.8969 56.5682C19.1408 56.5682 19.2522 56.3888 19.2522 56.2115C19.2522 56.0342 19.1412 55.8555 18.8969 55.8555H18.8973Z" fill="#975D48"/>
<path d="M4.2567 40.157C4.15994 40.157 4.06354 40.1985 3.99271 40.2704C3.92625 40.3378 3.89193 40.4222 3.89595 40.5084C3.90507 40.7041 4.06354 40.8576 4.2567 40.8576C4.35346 40.8576 4.44986 40.8165 4.5207 40.7442C4.58715 40.6768 4.62147 40.5924 4.61746 40.5063C4.60833 40.3105 4.44986 40.157 4.2567 40.157Z" fill="#975D48"/>
<path d="M3.20441 36.6228C3.09596 36.6228 3.00431 36.6611 2.94005 36.7341C2.88345 36.7983 2.85205 36.8845 2.85205 36.9763C2.85205 37.1519 2.97291 37.3295 3.20441 37.3295C3.43591 37.3295 3.55677 37.1519 3.55677 36.976C3.55677 36.8001 3.43591 36.6228 3.20441 36.6228Z" fill="#975D48"/>
<path d="M65.3219 30.4104C65.2718 30.3136 65.1755 30.2476 65.0571 30.2288C64.9275 30.2079 64.7939 30.2483 64.7073 30.332C64.6248 30.4122 64.585 30.5231 64.5978 30.6366C64.6113 30.7568 64.68 30.8628 64.7855 30.9277C64.8249 30.9518 64.8676 30.9685 64.9089 30.9841L64.9286 30.9919C64.9655 31.0061 65.0035 31.0135 65.0407 31.0135C65.1174 31.0135 65.193 30.9841 65.2583 30.9267C65.3693 30.8295 65.4194 30.6799 65.3825 30.5543C65.3672 30.5019 65.3431 30.4519 65.3219 30.4104Z" fill="#975D48"/>
<path d="M66.1698 25.5076L66.1063 25.503C66.0267 25.4977 65.9427 25.5293 65.877 25.5913C65.8076 25.6566 65.7686 25.7445 65.7722 25.8271C65.7766 25.9193 65.8237 26.015 65.8956 26.0767C65.9511 26.1243 66.0161 26.1494 66.0848 26.1494C66.0921 26.1494 66.0994 26.1491 66.1067 26.1487L66.1706 26.1441C66.3371 26.1313 66.5043 26.0087 66.4959 25.825C66.4879 25.6498 66.3572 25.5225 66.1706 25.5083L66.1698 25.5076Z" fill="#975D48"/>
<path d="M61.3835 18.7783C61.576 18.7783 61.6767 18.6301 61.6767 18.484C61.6767 18.4074 61.6508 18.3362 61.6037 18.283C61.55 18.2223 61.4737 18.1904 61.3835 18.1904C61.1907 18.1904 61.09 18.3386 61.09 18.4847C61.09 18.6308 61.1907 18.7787 61.3835 18.7787V18.7783Z" fill="#975D48"/>
<path d="M28.7393 13.0881H28.7532C29.0771 13.0828 29.3254 12.8916 29.4517 12.5498C29.5426 12.3041 29.5536 12.019 29.5638 11.7435C29.5715 11.5456 29.5792 11.341 29.6171 11.1581C29.7347 10.5918 29.9549 10.0642 30.2715 9.58937C30.2996 9.54717 30.3284 9.50497 30.3576 9.46313C30.4807 9.28513 30.6077 9.1011 30.6727 8.89225C30.7498 8.64474 30.7239 8.31533 30.4927 8.13662C30.3737 8.04478 30.2119 8.00081 30.0064 8.00223C29.2765 8.01216 28.7112 8.58163 28.4392 8.92026C27.9506 9.52838 27.6293 10.2532 27.5099 11.0155C27.4314 11.5151 27.4625 11.9261 27.6041 12.2718C27.7925 12.7321 28.2891 13.0881 28.7397 13.0881H28.7393Z" fill="#A27060"/>
<path d="M15.3658 17.7675C15.5998 17.3935 15.8872 17.0449 16.165 16.708C16.3337 16.5034 16.5079 16.2921 16.6693 16.0765C16.8807 15.7936 17.0804 15.4829 17.1071 15.1298C17.133 14.7862 16.9377 14.3805 16.566 14.2972C16.36 14.2511 16.122 14.3082 15.8587 14.4674C15.2398 14.8418 14.8403 15.461 14.4536 16.0602C14.3876 16.1627 14.3215 16.2652 14.2546 16.3659C13.8077 17.0392 13.2925 17.6736 12.7229 18.2519C12.6937 18.2813 12.6616 18.3136 12.6272 18.3484C12.1741 18.8033 11.3303 19.6501 11.3905 20.3489C11.411 20.5865 11.5355 20.789 11.7611 20.95C11.92 21.0634 12.1022 21.1205 12.3052 21.1205C12.3698 21.1205 12.4366 21.1145 12.5053 21.1032C13.1855 20.9883 13.9224 20.3135 14.2284 19.8713C14.4767 19.5121 14.6698 19.1139 14.8564 18.7292C15.0123 18.4076 15.1733 18.0753 15.3658 17.7675Z" fill="#A27060"/>
<path d="M17.7442 36.2253C17.5653 35.9647 17.3963 35.7186 17.321 35.3566C17.1713 34.6343 17.1721 33.7638 17.3229 32.7688C17.3283 32.733 17.3338 32.6972 17.3397 32.661C17.3795 32.4086 17.4207 32.1476 17.3835 31.8905C17.3451 31.6267 17.1932 31.3019 16.881 31.1817C16.6495 31.092 16.3954 31.1437 16.2234 31.2026C15.342 31.5036 14.9294 32.421 14.7618 32.9411C14.2228 34.613 14.6654 36.4118 15.863 37.4171C16.1825 37.6852 16.6992 37.8316 17.1618 37.8316C17.4755 37.8316 17.7643 37.7642 17.9498 37.6217C18.1393 37.476 18.3054 37.1916 18.0214 36.6643C17.9337 36.5016 17.8373 36.3611 17.7442 36.2257V36.2253Z" fill="#A27060"/>
<path d="M31.1568 24.5639C30.9377 24.4019 30.6018 24.3813 30.3013 24.5121C30.0296 24.6302 29.8149 24.8415 29.6236 25.0525C28.6184 26.1606 27.9502 27.5158 27.6913 28.9711C27.6106 29.4257 27.5328 30.098 27.7917 30.6873C27.998 31.1571 28.4924 31.5989 29.069 31.5989C29.1128 31.5989 29.157 31.5964 29.2015 31.5911C29.4739 31.5589 29.6809 31.4507 29.816 31.2695C30.042 30.966 30.0008 30.5557 29.9559 30.3384C29.8029 29.5948 29.774 28.9753 30.1001 28.185C30.2743 27.7626 30.5028 27.3556 30.7241 26.962C30.9016 26.6457 31.0852 26.3184 31.2404 25.9844C31.3507 25.7472 31.6698 24.9437 31.1572 24.5643L31.1568 24.5639Z" fill="#A27060"/>
<path d="M24.1188 41.5565C23.8731 41.5363 23.6383 41.6309 23.4824 41.7043C22.4768 42.1791 21.7188 43.2613 21.4548 44.5996C21.3248 45.2577 21.2726 46.2034 21.7607 46.97C22.0211 47.3792 22.6918 47.8568 23.321 47.9157C23.3633 47.9196 23.4046 47.9217 23.4451 47.9217C23.7347 47.9217 23.9819 47.8217 24.1655 47.6288C24.4525 47.327 24.3412 47.0795 24.2123 46.793C24.1853 46.7331 24.1575 46.6707 24.1312 46.6051C23.9519 46.1509 23.7741 45.5977 23.8143 44.9385C23.8676 44.0624 24.2017 43.2323 24.5215 42.5362C24.6041 42.3564 24.7067 42.133 24.6377 41.9199C24.5639 41.693 24.324 41.5742 24.1184 41.5565H24.1188Z" fill="#A27060"/>
<path d="M38.0123 45.0667C37.7626 45.0965 37.5953 45.3238 37.4989 45.5089C37.3624 45.7716 37.2787 46.0592 37.1973 46.3372C37.1228 46.5928 37.0454 46.8574 36.9278 47.1003C36.6832 47.6055 36.2439 48.0562 35.6583 48.4034C35.5962 48.4402 35.533 48.4757 35.4695 48.5112C35.2796 48.6175 35.0832 48.7278 34.9196 48.8757C34.6658 49.1051 34.5439 49.3973 34.5932 49.6568C34.6421 49.9139 34.8455 50.1121 35.0583 50.288C35.3811 50.5557 35.7715 50.6936 36.1994 50.6936C36.283 50.6936 36.3677 50.6883 36.4539 50.6777C37.1878 50.5876 37.9703 50.1036 38.4472 49.4448C38.8572 48.8785 39.0657 48.1484 39.1041 47.1471C39.1388 46.2382 38.9441 45.6188 38.51 45.2521C38.3935 45.1539 38.2124 45.0412 38.0123 45.066V45.0667Z" fill="#A27060"/>
<path d="M51.4241 41.6817C51.2131 41.4359 50.9407 41.2554 50.6566 41.0771C50.3123 40.8608 49.9709 40.6629 49.5798 40.6207C49.2012 40.5803 48.7345 40.7356 48.5768 41.1125C48.4205 41.4849 48.6188 41.8614 48.8108 42.2249C48.8908 42.3763 48.9733 42.5327 49.0288 42.6869C49.2227 43.2223 49.0836 43.8599 48.683 44.273C48.5644 44.3957 48.422 44.5021 48.2843 44.6052C48.0671 44.768 47.8425 44.9361 47.7045 45.1719C47.523 45.4807 47.5325 45.8708 47.7278 46.142C47.9006 46.3821 48.1912 46.4732 48.5308 46.4732C49.3735 46.4732 50.5153 45.9108 50.8877 45.6626C51.622 45.1733 52.0748 44.4372 52.0989 43.6932C52.1113 43.3046 52.0087 42.9309 51.9174 42.649C51.8229 42.3554 51.6812 41.9802 51.4241 41.6813V41.6817Z" fill="#A27060"/>
<path d="M41.4055 15.1256C41.4168 15.1256 41.4281 15.1256 41.4395 15.1249C41.9554 15.11 42.261 14.7607 42.2771 14.1672C42.2815 14.0147 42.2804 13.8689 42.2796 13.7285C42.2767 13.2498 42.2742 12.8364 42.4615 12.3378C42.6097 11.9435 42.8076 11.5616 42.9993 11.1918C43.133 10.9337 43.2713 10.6667 43.3922 10.3968C43.6427 9.83763 43.6613 9.42134 43.4495 9.12349C43.1859 8.75295 42.6232 8.71217 42.2322 8.88733C41.8181 9.07243 41.53 9.44439 41.3025 9.78409C40.7891 10.5507 40.4028 11.3872 40.1549 12.2697C40.0132 12.7736 39.8767 13.4314 40.0768 14.0537C40.2495 14.5909 40.7588 15.1252 41.4048 15.1252L41.4055 15.1256Z" fill="#A27060"/>
<path d="M44.2083 31.3702C43.9863 31.3308 43.7588 31.3791 43.5631 31.4273C42.754 31.6269 41.9879 31.951 41.2869 32.3907C40.7333 32.7382 40.3244 33.0992 40.037 33.4945C39.8179 33.7956 39.7157 34.0683 39.7237 34.3278C39.7358 34.7115 39.9092 34.8636 40.0523 34.9235C40.129 34.9554 40.2145 34.97 40.3043 34.97C40.6216 34.97 40.9962 34.7913 41.2452 34.5757C41.396 34.4448 41.537 34.3161 41.6732 34.1916C42.0989 33.8027 42.5006 33.4353 43.0815 33.1357L44.0363 32.6428C44.2116 32.5524 44.3927 32.4588 44.5315 32.3127C44.687 32.1478 44.7524 31.9361 44.7016 31.7599C44.6458 31.5666 44.4522 31.4135 44.2083 31.3702Z" fill="#A27060"/>
<path d="M56.489 22.9946C56.2323 22.8049 55.8876 22.7081 55.4045 22.6897C53.7103 22.6223 51.9507 23.4396 50.6997 24.8697C50.3934 25.2196 50.205 25.8384 50.4248 26.166C50.492 26.2664 50.6176 26.3664 50.8505 26.3664C50.9411 26.3664 51.0477 26.3515 51.1737 26.3153C51.6151 26.1887 51.9942 25.9313 52.3608 25.6824C52.7712 25.4037 53.1958 25.1157 53.7187 24.998C54.0156 24.9314 54.3292 24.8938 54.6323 24.8573C55.2537 24.7831 55.8964 24.7058 56.4269 24.3725C56.6128 24.2559 56.7366 24.1318 56.8056 23.9938C56.9805 23.6435 56.7818 23.2105 56.489 22.9942V22.9946Z" fill="#A27060"/>
</g>
<defs>
<clipPath id="clip0_229_52">
<rect width="69" height="63" fill="white"/>
</clipPath>
</defs>
</svg>