<svg width="18" height="18" viewBox="0 0 18 18" fill="none" xmlns="http://www.w3.org/2000/svg">
<path d="M5.74214 5.68189C4.66901 6.59373 4.27576 8.2567 5.20237 9.5908C6.06948 10.8392 7.1618 11.9313 8.4099 12.798C9.7441 13.7244 11.407 13.3311 12.3187 12.2579L12.3289 12.2626C13.4934 12.8021 14.7304 13.1718 16 13.3603V16H15.9989H15.9961C8.0215 16.0113 1.99148 9.9111 2.00001 2.00359V2H4.63937L4.63954 2.00117C4.828 3.27065 5.19761 4.50654 5.73714 5.67108L5.74214 5.68189ZM15.9989 18H17C17.5523 18 18 17.5523 18 17V12.4977C18 12.0021 17.637 11.5813 17.1468 11.5086L16.2926 11.3818C15.2123 11.2215 14.1605 10.9069 13.1695 10.4478L12.4166 10.0991C11.9804 9.897 11.462 10.034 11.1826 10.4253L10.8418 10.9024C10.5431 11.3206 9.9728 11.4484 9.5506 11.1552C8.4984 10.4245 7.5761 9.5024 6.84502 8.4499C6.55181 8.0277 6.67955 7.4574 7.0978 7.1587L7.5748 6.81807C7.9661 6.53861 8.1031 6.02021 7.901 5.5839L7.5518 4.83033C7.0927 3.8394 6.77823 2.78774 6.61786 1.70749L6.49104 0.85316C6.41827 0.36296 5.99745 0 5.50188 0H1.00001C0.44773 0 1.02271e-05 0.44772 1.02271e-05 1V2.00143C-0.00970977 11.0079 6.91023 18.0129 15.9989 18Z" fill="#FF4616"/>
</svg>
