<svg width="167" height="27" viewBox="0 0 167 27" fill="none" xmlns="http://www.w3.org/2000/svg">
<path d="M13.5 0L16.5309 9.32827H26.3393L18.4042 15.0935L21.4351 24.4217L13.5 18.6565L5.5649 24.4217L8.59584 15.0935L0.660737 9.32827H10.4691L13.5 0Z" fill="#FF4616"/>
<path d="M48.5 0L51.5309 9.32827H61.3393L53.4042 15.0935L56.4351 24.4217L48.5 18.6565L40.5649 24.4217L43.5958 15.0935L35.6607 9.32827H45.4691L48.5 0Z" fill="#FF4616"/>
<path d="M83.5 0L86.5309 9.32827H96.3393L88.4042 15.0935L91.4351 24.4217L83.5 18.6565L75.5649 24.4217L78.5958 15.0935L70.6607 9.32827H80.4691L83.5 0Z" fill="#FF4616"/>
<path d="M118.5 0L121.531 9.32827H131.339L123.404 15.0935L126.435 24.4217L118.5 18.6565L110.565 24.4217L113.596 15.0935L105.661 9.32827H115.469L118.5 0Z" fill="#FF4616"/>
<path d="M153.5 0L156.531 9.32827H166.339L158.404 15.0935L161.435 24.4217L153.5 18.6565L145.565 24.4217L148.596 15.0935L140.661 9.32827H150.469L153.5 0Z" fill="#FF4616"/>
</svg>
