<svg width="17" height="17" viewBox="0 0 17 17" fill="none" xmlns="http://www.w3.org/2000/svg">
<path d="M8.32917 0C3.725 0 0 3.72917 0 8.33333C0 12.9375 3.725 16.6667 8.32917 16.6667C12.9333 16.6667 16.6667 12.9375 16.6667 8.33333C16.6667 3.72917 12.9333 0 8.32917 0ZM8.33333 15C4.65 15 1.66667 12.0167 1.66667 8.33333C1.66667 4.65 4.65 1.66667 8.33333 1.66667C12.0167 1.66667 15 4.65 15 8.33333C15 12.0167 12.0167 15 8.33333 15Z" fill="#009FD9"/>
<path d="M8.75 4.16669H7.5V9.16669L11.8708 11.7917L12.5 10.7667L8.75 8.54169V4.16669Z" fill="#009FD9"/>
</svg>
