<svg width="40" height="40" viewBox="0 0 40 40" fill="none" xmlns="http://www.w3.org/2000/svg">
<g clip-path="url(#clip0_883_585)">
<path d="M30.0128 0H9.98724C4.47144 0 0 4.47144 0 9.98724V30.0128C0 35.5286 4.47144 40 9.98724 40H30.0128C35.5286 40 40 35.5286 40 30.0128V9.98724C40 4.47144 35.5286 0 30.0128 0Z" fill="url(#paint0_linear_883_585)"/>
<path d="M30.0128 0H9.98724C4.47144 0 0 4.47144 0 9.98724V30.0128C0 35.5286 4.47144 40 9.98724 40H30.0128C35.5286 40 40 35.5286 40 30.0128V9.98724C40 4.47144 35.5286 0 30.0128 0Z" fill="url(#paint1_radial_883_585)"/>
<path fill-rule="evenodd" clip-rule="evenodd" d="M20.3284 35.1334C17.3281 35.1334 15.9339 34.6954 13.5103 32.9434C11.9773 34.9144 7.12287 36.4547 6.91115 33.8194C6.91115 31.8412 6.47315 30.1695 5.97675 28.3445C5.38547 26.0961 4.71387 23.5922 4.71387 19.9642C4.71387 11.2991 11.824 4.78027 20.2481 4.78027C28.6795 4.78027 35.286 11.6203 35.286 20.0444C35.3143 28.3383 28.6222 35.0892 20.3284 35.1334ZM20.4525 12.27C16.35 12.0583 13.1526 14.898 12.4445 19.351C11.8605 23.0374 12.8971 27.5269 13.7804 27.7605C14.2038 27.8627 15.2696 27.0013 15.9339 26.337C17.0323 27.0958 18.3115 27.5516 19.6423 27.6583C23.8932 27.8628 27.5255 24.6265 27.8109 20.3803C27.977 16.125 24.7041 12.5208 20.4525 12.2773V12.27Z" fill="white"/>
</g>
<defs>
<linearGradient id="paint0_linear_883_585" x1="4.71388" y1="30.4214" x2="40" y2="20" gradientUnits="userSpaceOnUse">
<stop stop-color="#44CCFF"/>
<stop offset="0.662" stop-color="#5533EE"/>
<stop offset="1" stop-color="#9933DD"/>
</linearGradient>
<radialGradient id="paint1_radial_883_585" cx="0" cy="0" r="1" gradientUnits="userSpaceOnUse" gradientTransform="translate(-0.951632 -17.5674) rotate(51.356) scale(48.5407 20)">
<stop stop-color="#0000FF"/>
<stop offset="1" stop-opacity="0"/>
</radialGradient>
<clipPath id="clip0_883_585">
<rect width="40" height="40" rx="10" fill="white"/>
</clipPath>
</defs>
</svg>
