<svg width="40" height="40" viewBox="0 0 40 40" fill="none" xmlns="http://www.w3.org/2000/svg">
<path d="M20 40C31.0457 40 40 31.0457 40 20C40 8.95431 31.0457 0 20 0C8.95431 0 0 8.95431 0 20C0 31.0457 8.95431 40 20 40Z" fill="url(#paint0_linear_883_584)"/>
<path d="M7.44869 20.978C9.78669 19.6902 12.3965 18.6153 14.835 17.535C19.0302 15.7655 23.242 14.0266 27.4964 12.4078C28.3241 12.132 29.8114 11.8623 29.9572 13.0889C29.8773 14.8252 29.5488 16.5514 29.3235 18.2776C28.7516 22.0736 28.0906 25.8566 27.446 29.6401C27.2239 30.9004 25.6452 31.5527 24.635 30.7462C22.2073 29.1064 19.761 27.4825 17.3643 25.8047C16.5793 25.007 17.3073 23.8614 18.0084 23.2917C20.0079 21.3212 22.1284 19.647 24.0234 17.5747C24.5346 16.3404 23.0242 17.3806 22.5261 17.6994C19.7887 19.5857 17.1184 21.5872 14.2324 23.2451C12.7582 24.0565 11.0401 23.3631 9.56655 22.9103C8.2454 22.3633 6.30939 21.8121 7.44855 20.9781L7.44869 20.978Z" fill="white"/>
<defs>
<linearGradient id="paint0_linear_883_584" x1="26.6683" y1="6.668" x2="16.6683" y2="30" gradientUnits="userSpaceOnUse">
<stop stop-color="#37AEE2"/>
<stop offset="1" stop-color="#1E96C8"/>
</linearGradient>
</defs>
</svg>
