<svg width="74" height="74" viewBox="0 0 74 74" fill="none" xmlns="http://www.w3.org/2000/svg">
<g clip-path="url(#clip0_70_634)">
<path d="M19.7332 37.0001L34.5332 49.3335L54.2666 24.6668M36.9999 71.5335C32.4649 71.5335 27.9743 70.6402 23.7846 68.9048C19.5948 67.1693 15.7878 64.6256 12.5811 61.4189C9.37441 58.2122 6.83071 54.4052 5.09525 50.2155C3.35978 46.0257 2.46655 41.5351 2.46655 37.0001C2.46655 32.4651 3.35978 27.9746 5.09525 23.7848C6.83071 19.595 9.37441 15.7881 12.5811 12.5814C15.7878 9.37466 19.5948 6.83095 23.7846 5.09549C27.9743 3.36003 32.4649 2.4668 36.9999 2.4668C46.1587 2.4668 54.9424 6.10512 61.4186 12.5814C67.8949 19.0576 71.5332 27.8413 71.5332 37.0001C71.5332 46.1589 67.8949 54.9426 61.4186 61.4189C54.9424 67.8951 46.1587 71.5335 36.9999 71.5335Z" stroke="#ff4616" stroke-width="3"/>
</g>
<defs>
<clipPath id="clip0_70_634">
<rect width="74" height="74" fill="white"/>
</clipPath>
</defs>
</svg>